<?xml version="1.0" encoding="UTF-8" standalone="no"?>
<!DOCTYPE svg PUBLIC "-//W3C//DTD SVG 1.1//EN"
 "http://www.w3.org/Graphics/SVG/1.1/DTD/svg11.dtd">
<!-- Generated by graphviz version 3.0.0 (20220226.1711)
 -->
<!-- Pages: 1 -->
<svg width="549pt" height="3604pt"
 viewBox="0.00 0.00 549.00 3604.00" xmlns="http://www.w3.org/2000/svg" xmlns:xlink="http://www.w3.org/1999/xlink">
<g id="graph0" class="graph" transform="scale(1 1) rotate(0) translate(4 3600)">
<polygon fill="white" stroke="transparent" points="-4,4 -4,-3600 545,-3600 545,4 -4,4"/>
<text text-anchor="middle" x="270.5" y="-3580.8" font-family="Times New Roman,serif" font-size="14.00">SuperPointNet</text>
<g id="clust1" class="cluster">
<title>cluster_.1203</title>
<polygon fill="none" stroke="black" points="8,-568 8,-1657 494,-1657 494,-568 8,-568"/>
<text text-anchor="middle" x="251" y="-1641.8" font-family="Times New Roman,serif" font-size="14.00">CAtt (CoordAtt)</text>
</g>
<g id="clust2" class="cluster">
<title>cluster_CAtt..58</title>
<polygon fill="none" stroke="black" points="150,-784 150,-1366 386,-1366 386,-784 150,-784"/>
<text text-anchor="middle" x="268" y="-1350.8" font-family="Times New Roman,serif" font-size="14.00">CAtt.act (h_swish)</text>
</g>
<g id="clust3" class="cluster">
<title>cluster_CAtt.act..5</title>
<polygon fill="none" stroke="black" points="158,-928 158,-1291 366,-1291 366,-928 158,-928"/>
<text text-anchor="middle" x="262" y="-1275.8" font-family="Times New Roman,serif" font-size="14.00">CAtt.act.sigmoid (h_sigmoid)</text>
</g>
<!-- inp_x.1 -->
<g id="node1" class="node">
<title>inp_x.1</title>
<ellipse fill="none" stroke="black" cx="357" cy="-3555" rx="38.19" ry="18"/>
<text text-anchor="middle" x="357" y="-3551.3" font-family="Times New Roman,serif" font-size="14.00">inp_x.1</text>
</g>
<!-- .1177 -->
<g id="node2" class="node">
<title>.1177</title>
<polygon fill="none" stroke="black" points="414.5,-3501 299.5,-3501 299.5,-3465 414.5,-3465 414.5,-3501"/>
<text text-anchor="middle" x="357" y="-3479.3" font-family="Times New Roman,serif" font-size="14.00">conv1a (Conv2d)</text>
</g>
<!-- inp_x.1&#45;&gt;.1177 -->
<g id="edge1" class="edge">
<title>inp_x.1&#45;&gt;.1177</title>
<path fill="none" stroke="black" d="M357,-3536.7C357,-3528.98 357,-3519.71 357,-3511.11"/>
<polygon fill="black" stroke="black" points="360.5,-3511.1 357,-3501.1 353.5,-3511.1 360.5,-3511.1"/>
</g>
<!-- .1178 -->
<g id="node3" class="node">
<title>.1178</title>
<polygon fill="none" stroke="black" points="424.5,-3429 289.5,-3429 289.5,-3393 424.5,-3393 424.5,-3429"/>
<text text-anchor="middle" x="357" y="-3407.3" font-family="Times New Roman,serif" font-size="14.00">bn1a (BatchNorm2d)</text>
</g>
<!-- .1177&#45;&gt;.1178 -->
<g id="edge2" class="edge">
<title>.1177&#45;&gt;.1178</title>
<path fill="none" stroke="black" d="M357,-3464.7C357,-3456.98 357,-3447.71 357,-3439.11"/>
<polygon fill="black" stroke="black" points="360.5,-3439.1 357,-3429.1 353.5,-3439.1 360.5,-3439.1"/>
</g>
<!-- .1179 -->
<g id="node4" class="node">
<title>.1179</title>
<polygon fill="none" stroke="black" points="398.5,-3357 315.5,-3357 315.5,-3321 398.5,-3321 398.5,-3357"/>
<text text-anchor="middle" x="357" y="-3335.3" font-family="Times New Roman,serif" font-size="14.00">relu (ReLU)</text>
</g>
<!-- .1178&#45;&gt;.1179 -->
<g id="edge3" class="edge">
<title>.1178&#45;&gt;.1179</title>
<path fill="none" stroke="black" d="M357,-3392.7C357,-3384.98 357,-3375.71 357,-3367.11"/>
<polygon fill="black" stroke="black" points="360.5,-3367.1 357,-3357.1 353.5,-3367.1 360.5,-3367.1"/>
</g>
<!-- .1180 -->
<g id="node5" class="node">
<title>.1180</title>
<polygon fill="none" stroke="black" points="415,-3285 299,-3285 299,-3249 415,-3249 415,-3285"/>
<text text-anchor="middle" x="357" y="-3263.3" font-family="Times New Roman,serif" font-size="14.00">conv1b (Conv2d)</text>
</g>
<!-- .1179&#45;&gt;.1180 -->
<g id="edge4" class="edge">
<title>.1179&#45;&gt;.1180</title>
<path fill="none" stroke="black" d="M357,-3320.7C357,-3312.98 357,-3303.71 357,-3295.11"/>
<polygon fill="black" stroke="black" points="360.5,-3295.1 357,-3285.1 353.5,-3295.1 360.5,-3295.1"/>
</g>
<!-- .1181 -->
<g id="node6" class="node">
<title>.1181</title>
<polygon fill="none" stroke="black" points="425.5,-3213 288.5,-3213 288.5,-3177 425.5,-3177 425.5,-3213"/>
<text text-anchor="middle" x="357" y="-3191.3" font-family="Times New Roman,serif" font-size="14.00">bn1b (BatchNorm2d)</text>
</g>
<!-- .1180&#45;&gt;.1181 -->
<g id="edge5" class="edge">
<title>.1180&#45;&gt;.1181</title>
<path fill="none" stroke="black" d="M357,-3248.7C357,-3240.98 357,-3231.71 357,-3223.11"/>
<polygon fill="black" stroke="black" points="360.5,-3223.1 357,-3213.1 353.5,-3223.1 360.5,-3223.1"/>
</g>
<!-- .1182 -->
<g id="node7" class="node">
<title>.1182</title>
<polygon fill="none" stroke="black" points="398.5,-3141 315.5,-3141 315.5,-3105 398.5,-3105 398.5,-3141"/>
<text text-anchor="middle" x="357" y="-3119.3" font-family="Times New Roman,serif" font-size="14.00">relu (ReLU)</text>
</g>
<!-- .1181&#45;&gt;.1182 -->
<g id="edge6" class="edge">
<title>.1181&#45;&gt;.1182</title>
<path fill="none" stroke="black" d="M357,-3176.7C357,-3168.98 357,-3159.71 357,-3151.11"/>
<polygon fill="black" stroke="black" points="360.5,-3151.1 357,-3141.1 353.5,-3151.1 360.5,-3151.1"/>
</g>
<!-- .1183 -->
<g id="node8" class="node">
<title>.1183</title>
<polygon fill="none" stroke="black" points="417,-3069 297,-3069 297,-3033 417,-3033 417,-3069"/>
<text text-anchor="middle" x="357" y="-3047.3" font-family="Times New Roman,serif" font-size="14.00">pool (MaxPool2d)</text>
</g>
<!-- .1182&#45;&gt;.1183 -->
<g id="edge7" class="edge">
<title>.1182&#45;&gt;.1183</title>
<path fill="none" stroke="black" d="M357,-3104.7C357,-3096.98 357,-3087.71 357,-3079.11"/>
<polygon fill="black" stroke="black" points="360.5,-3079.1 357,-3069.1 353.5,-3079.1 360.5,-3079.1"/>
</g>
<!-- .1184 -->
<g id="node9" class="node">
<title>.1184</title>
<polygon fill="none" stroke="black" points="414.5,-2997 299.5,-2997 299.5,-2961 414.5,-2961 414.5,-2997"/>
<text text-anchor="middle" x="357" y="-2975.3" font-family="Times New Roman,serif" font-size="14.00">conv2a (Conv2d)</text>
</g>
<!-- .1183&#45;&gt;.1184 -->
<g id="edge8" class="edge">
<title>.1183&#45;&gt;.1184</title>
<path fill="none" stroke="black" d="M357,-3032.7C357,-3024.98 357,-3015.71 357,-3007.11"/>
<polygon fill="black" stroke="black" points="360.5,-3007.1 357,-2997.1 353.5,-3007.1 360.5,-3007.1"/>
</g>
<!-- .1185 -->
<g id="node10" class="node">
<title>.1185</title>
<polygon fill="none" stroke="black" points="424.5,-2925 289.5,-2925 289.5,-2889 424.5,-2889 424.5,-2925"/>
<text text-anchor="middle" x="357" y="-2903.3" font-family="Times New Roman,serif" font-size="14.00">bn2a (BatchNorm2d)</text>
</g>
<!-- .1184&#45;&gt;.1185 -->
<g id="edge9" class="edge">
<title>.1184&#45;&gt;.1185</title>
<path fill="none" stroke="black" d="M357,-2960.7C357,-2952.98 357,-2943.71 357,-2935.11"/>
<polygon fill="black" stroke="black" points="360.5,-2935.1 357,-2925.1 353.5,-2935.1 360.5,-2935.1"/>
</g>
<!-- .1186 -->
<g id="node11" class="node">
<title>.1186</title>
<polygon fill="none" stroke="black" points="398.5,-2853 315.5,-2853 315.5,-2817 398.5,-2817 398.5,-2853"/>
<text text-anchor="middle" x="357" y="-2831.3" font-family="Times New Roman,serif" font-size="14.00">relu (ReLU)</text>
</g>
<!-- .1185&#45;&gt;.1186 -->
<g id="edge10" class="edge">
<title>.1185&#45;&gt;.1186</title>
<path fill="none" stroke="black" d="M357,-2888.7C357,-2880.98 357,-2871.71 357,-2863.11"/>
<polygon fill="black" stroke="black" points="360.5,-2863.1 357,-2853.1 353.5,-2863.1 360.5,-2863.1"/>
</g>
<!-- .1187 -->
<g id="node12" class="node">
<title>.1187</title>
<polygon fill="none" stroke="black" points="415,-2781 299,-2781 299,-2745 415,-2745 415,-2781"/>
<text text-anchor="middle" x="357" y="-2759.3" font-family="Times New Roman,serif" font-size="14.00">conv2b (Conv2d)</text>
</g>
<!-- .1186&#45;&gt;.1187 -->
<g id="edge11" class="edge">
<title>.1186&#45;&gt;.1187</title>
<path fill="none" stroke="black" d="M357,-2816.7C357,-2808.98 357,-2799.71 357,-2791.11"/>
<polygon fill="black" stroke="black" points="360.5,-2791.1 357,-2781.1 353.5,-2791.1 360.5,-2791.1"/>
</g>
<!-- .1188 -->
<g id="node13" class="node">
<title>.1188</title>
<polygon fill="none" stroke="black" points="425.5,-2709 288.5,-2709 288.5,-2673 425.5,-2673 425.5,-2709"/>
<text text-anchor="middle" x="357" y="-2687.3" font-family="Times New Roman,serif" font-size="14.00">bn2b (BatchNorm2d)</text>
</g>
<!-- .1187&#45;&gt;.1188 -->
<g id="edge12" class="edge">
<title>.1187&#45;&gt;.1188</title>
<path fill="none" stroke="black" d="M357,-2744.7C357,-2736.98 357,-2727.71 357,-2719.11"/>
<polygon fill="black" stroke="black" points="360.5,-2719.1 357,-2709.1 353.5,-2719.1 360.5,-2719.1"/>
</g>
<!-- .1189 -->
<g id="node14" class="node">
<title>.1189</title>
<polygon fill="none" stroke="black" points="398.5,-2637 315.5,-2637 315.5,-2601 398.5,-2601 398.5,-2637"/>
<text text-anchor="middle" x="357" y="-2615.3" font-family="Times New Roman,serif" font-size="14.00">relu (ReLU)</text>
</g>
<!-- .1188&#45;&gt;.1189 -->
<g id="edge13" class="edge">
<title>.1188&#45;&gt;.1189</title>
<path fill="none" stroke="black" d="M357,-2672.7C357,-2664.98 357,-2655.71 357,-2647.11"/>
<polygon fill="black" stroke="black" points="360.5,-2647.1 357,-2637.1 353.5,-2647.1 360.5,-2647.1"/>
</g>
<!-- .1190 -->
<g id="node15" class="node">
<title>.1190</title>
<polygon fill="none" stroke="black" points="417,-2565 297,-2565 297,-2529 417,-2529 417,-2565"/>
<text text-anchor="middle" x="357" y="-2543.3" font-family="Times New Roman,serif" font-size="14.00">pool (MaxPool2d)</text>
</g>
<!-- .1189&#45;&gt;.1190 -->
<g id="edge14" class="edge">
<title>.1189&#45;&gt;.1190</title>
<path fill="none" stroke="black" d="M357,-2600.7C357,-2592.98 357,-2583.71 357,-2575.11"/>
<polygon fill="black" stroke="black" points="360.5,-2575.1 357,-2565.1 353.5,-2575.1 360.5,-2575.1"/>
</g>
<!-- .1191 -->
<g id="node16" class="node">
<title>.1191</title>
<polygon fill="none" stroke="black" points="414.5,-2493 299.5,-2493 299.5,-2457 414.5,-2457 414.5,-2493"/>
<text text-anchor="middle" x="357" y="-2471.3" font-family="Times New Roman,serif" font-size="14.00">conv3a (Conv2d)</text>
</g>
<!-- .1190&#45;&gt;.1191 -->
<g id="edge15" class="edge">
<title>.1190&#45;&gt;.1191</title>
<path fill="none" stroke="black" d="M357,-2528.7C357,-2520.98 357,-2511.71 357,-2503.11"/>
<polygon fill="black" stroke="black" points="360.5,-2503.1 357,-2493.1 353.5,-2503.1 360.5,-2503.1"/>
</g>
<!-- .1192 -->
<g id="node17" class="node">
<title>.1192</title>
<polygon fill="none" stroke="black" points="424.5,-2421 289.5,-2421 289.5,-2385 424.5,-2385 424.5,-2421"/>
<text text-anchor="middle" x="357" y="-2399.3" font-family="Times New Roman,serif" font-size="14.00">bn3a (BatchNorm2d)</text>
</g>
<!-- .1191&#45;&gt;.1192 -->
<g id="edge16" class="edge">
<title>.1191&#45;&gt;.1192</title>
<path fill="none" stroke="black" d="M357,-2456.7C357,-2448.98 357,-2439.71 357,-2431.11"/>
<polygon fill="black" stroke="black" points="360.5,-2431.1 357,-2421.1 353.5,-2431.1 360.5,-2431.1"/>
</g>
<!-- .1193 -->
<g id="node18" class="node">
<title>.1193</title>
<polygon fill="none" stroke="black" points="398.5,-2349 315.5,-2349 315.5,-2313 398.5,-2313 398.5,-2349"/>
<text text-anchor="middle" x="357" y="-2327.3" font-family="Times New Roman,serif" font-size="14.00">relu (ReLU)</text>
</g>
<!-- .1192&#45;&gt;.1193 -->
<g id="edge17" class="edge">
<title>.1192&#45;&gt;.1193</title>
<path fill="none" stroke="black" d="M357,-2384.7C357,-2376.98 357,-2367.71 357,-2359.11"/>
<polygon fill="black" stroke="black" points="360.5,-2359.1 357,-2349.1 353.5,-2359.1 360.5,-2359.1"/>
</g>
<!-- .1194 -->
<g id="node19" class="node">
<title>.1194</title>
<polygon fill="none" stroke="black" points="415,-2277 299,-2277 299,-2241 415,-2241 415,-2277"/>
<text text-anchor="middle" x="357" y="-2255.3" font-family="Times New Roman,serif" font-size="14.00">conv3b (Conv2d)</text>
</g>
<!-- .1193&#45;&gt;.1194 -->
<g id="edge18" class="edge">
<title>.1193&#45;&gt;.1194</title>
<path fill="none" stroke="black" d="M357,-2312.7C357,-2304.98 357,-2295.71 357,-2287.11"/>
<polygon fill="black" stroke="black" points="360.5,-2287.1 357,-2277.1 353.5,-2287.1 360.5,-2287.1"/>
</g>
<!-- .1195 -->
<g id="node20" class="node">
<title>.1195</title>
<polygon fill="none" stroke="black" points="425.5,-2205 288.5,-2205 288.5,-2169 425.5,-2169 425.5,-2205"/>
<text text-anchor="middle" x="357" y="-2183.3" font-family="Times New Roman,serif" font-size="14.00">bn3b (BatchNorm2d)</text>
</g>
<!-- .1194&#45;&gt;.1195 -->
<g id="edge19" class="edge">
<title>.1194&#45;&gt;.1195</title>
<path fill="none" stroke="black" d="M357,-2240.7C357,-2232.98 357,-2223.71 357,-2215.11"/>
<polygon fill="black" stroke="black" points="360.5,-2215.1 357,-2205.1 353.5,-2215.1 360.5,-2215.1"/>
</g>
<!-- .1196 -->
<g id="node21" class="node">
<title>.1196</title>
<polygon fill="none" stroke="black" points="398.5,-2133 315.5,-2133 315.5,-2097 398.5,-2097 398.5,-2133"/>
<text text-anchor="middle" x="357" y="-2111.3" font-family="Times New Roman,serif" font-size="14.00">relu (ReLU)</text>
</g>
<!-- .1195&#45;&gt;.1196 -->
<g id="edge20" class="edge">
<title>.1195&#45;&gt;.1196</title>
<path fill="none" stroke="black" d="M357,-2168.7C357,-2160.98 357,-2151.71 357,-2143.11"/>
<polygon fill="black" stroke="black" points="360.5,-2143.1 357,-2133.1 353.5,-2143.1 360.5,-2143.1"/>
</g>
<!-- .1197 -->
<g id="node22" class="node">
<title>.1197</title>
<polygon fill="none" stroke="black" points="417,-2061 297,-2061 297,-2025 417,-2025 417,-2061"/>
<text text-anchor="middle" x="357" y="-2039.3" font-family="Times New Roman,serif" font-size="14.00">pool (MaxPool2d)</text>
</g>
<!-- .1196&#45;&gt;.1197 -->
<g id="edge21" class="edge">
<title>.1196&#45;&gt;.1197</title>
<path fill="none" stroke="black" d="M357,-2096.7C357,-2088.98 357,-2079.71 357,-2071.11"/>
<polygon fill="black" stroke="black" points="360.5,-2071.1 357,-2061.1 353.5,-2071.1 360.5,-2071.1"/>
</g>
<!-- .1198 -->
<g id="node23" class="node">
<title>.1198</title>
<polygon fill="none" stroke="black" points="414.5,-1989 299.5,-1989 299.5,-1953 414.5,-1953 414.5,-1989"/>
<text text-anchor="middle" x="357" y="-1967.3" font-family="Times New Roman,serif" font-size="14.00">conv4a (Conv2d)</text>
</g>
<!-- .1197&#45;&gt;.1198 -->
<g id="edge22" class="edge">
<title>.1197&#45;&gt;.1198</title>
<path fill="none" stroke="black" d="M357,-2024.7C357,-2016.98 357,-2007.71 357,-1999.11"/>
<polygon fill="black" stroke="black" points="360.5,-1999.1 357,-1989.1 353.5,-1999.1 360.5,-1999.1"/>
</g>
<!-- .1199 -->
<g id="node24" class="node">
<title>.1199</title>
<polygon fill="none" stroke="black" points="424.5,-1917 289.5,-1917 289.5,-1881 424.5,-1881 424.5,-1917"/>
<text text-anchor="middle" x="357" y="-1895.3" font-family="Times New Roman,serif" font-size="14.00">bn4a (BatchNorm2d)</text>
</g>
<!-- .1198&#45;&gt;.1199 -->
<g id="edge23" class="edge">
<title>.1198&#45;&gt;.1199</title>
<path fill="none" stroke="black" d="M357,-1952.7C357,-1944.98 357,-1935.71 357,-1927.11"/>
<polygon fill="black" stroke="black" points="360.5,-1927.1 357,-1917.1 353.5,-1927.1 360.5,-1927.1"/>
</g>
<!-- .1200 -->
<g id="node25" class="node">
<title>.1200</title>
<polygon fill="none" stroke="black" points="398.5,-1845 315.5,-1845 315.5,-1809 398.5,-1809 398.5,-1845"/>
<text text-anchor="middle" x="357" y="-1823.3" font-family="Times New Roman,serif" font-size="14.00">relu (ReLU)</text>
</g>
<!-- .1199&#45;&gt;.1200 -->
<g id="edge24" class="edge">
<title>.1199&#45;&gt;.1200</title>
<path fill="none" stroke="black" d="M357,-1880.7C357,-1872.98 357,-1863.71 357,-1855.11"/>
<polygon fill="black" stroke="black" points="360.5,-1855.1 357,-1845.1 353.5,-1855.1 360.5,-1855.1"/>
</g>
<!-- .1201 -->
<g id="node26" class="node">
<title>.1201</title>
<polygon fill="none" stroke="black" points="415,-1773 299,-1773 299,-1737 415,-1737 415,-1773"/>
<text text-anchor="middle" x="357" y="-1751.3" font-family="Times New Roman,serif" font-size="14.00">conv4b (Conv2d)</text>
</g>
<!-- .1200&#45;&gt;.1201 -->
<g id="edge25" class="edge">
<title>.1200&#45;&gt;.1201</title>
<path fill="none" stroke="black" d="M357,-1808.7C357,-1800.98 357,-1791.71 357,-1783.11"/>
<polygon fill="black" stroke="black" points="360.5,-1783.1 357,-1773.1 353.5,-1783.1 360.5,-1783.1"/>
</g>
<!-- .1202 -->
<g id="node27" class="node">
<title>.1202</title>
<polygon fill="none" stroke="black" points="425.5,-1701 288.5,-1701 288.5,-1665 425.5,-1665 425.5,-1701"/>
<text text-anchor="middle" x="357" y="-1679.3" font-family="Times New Roman,serif" font-size="14.00">bn4b (BatchNorm2d)</text>
</g>
<!-- .1201&#45;&gt;.1202 -->
<g id="edge26" class="edge">
<title>.1201&#45;&gt;.1202</title>
<path fill="none" stroke="black" d="M357,-1736.7C357,-1728.98 357,-1719.71 357,-1711.11"/>
<polygon fill="black" stroke="black" points="360.5,-1711.1 357,-1701.1 353.5,-1711.1 360.5,-1711.1"/>
</g>
<!-- CAtt.inp_10 -->
<g id="node28" class="node">
<title>CAtt.inp_10</title>
<ellipse fill="none" stroke="black" cx="357" cy="-1608" rx="55.79" ry="18"/>
<text text-anchor="middle" x="357" y="-1604.3" font-family="Times New Roman,serif" font-size="14.00">CAtt.inp_10</text>
</g>
<!-- .1202&#45;&gt;CAtt.inp_10 -->
<g id="edge27" class="edge">
<title>.1202&#45;&gt;CAtt.inp_10</title>
<path fill="none" stroke="black" d="M357,-1664.7C357,-1656.25 357,-1645.87 357,-1636.37"/>
<polygon fill="black" stroke="black" points="360.5,-1636.18 357,-1626.18 353.5,-1636.18 360.5,-1636.18"/>
</g>
<!-- CAtt..54 -->
<g id="node29" class="node">
<title>CAtt..54</title>
<polygon fill="none" stroke="black" points="230,-1554 16,-1554 16,-1518 230,-1518 230,-1554"/>
<text text-anchor="middle" x="123" y="-1532.3" font-family="Times New Roman,serif" font-size="14.00">CAtt.pool_h (AdaptiveAvgPool2d)</text>
</g>
<!-- CAtt.inp_10&#45;&gt;CAtt..54 -->
<g id="edge28" class="edge">
<title>CAtt.inp_10&#45;&gt;CAtt..54</title>
<path fill="none" stroke="black" d="M317.57,-1595.2C282.72,-1584.78 231.16,-1569.36 189.87,-1557.01"/>
<polygon fill="black" stroke="black" points="190.74,-1553.61 180.16,-1554.1 188.73,-1560.32 190.74,-1553.61"/>
</g>
<!-- CAtt..55 -->
<g id="node30" class="node">
<title>CAtt..55</title>
<polygon fill="none" stroke="black" points="465.5,-1554 248.5,-1554 248.5,-1518 465.5,-1518 465.5,-1554"/>
<text text-anchor="middle" x="357" y="-1532.3" font-family="Times New Roman,serif" font-size="14.00">CAtt.pool_w (AdaptiveAvgPool2d)</text>
</g>
<!-- CAtt.inp_10&#45;&gt;CAtt..55 -->
<g id="edge29" class="edge">
<title>CAtt.inp_10&#45;&gt;CAtt..55</title>
<path fill="none" stroke="black" d="M357,-1589.7C357,-1581.98 357,-1572.71 357,-1564.11"/>
<polygon fill="black" stroke="black" points="360.5,-1564.1 357,-1554.1 353.5,-1564.1 360.5,-1564.1"/>
</g>
<!-- inp_CAtt.out_0 -->
<g id="node44" class="node">
<title>inp_CAtt.out_0</title>
<path fill="none" stroke="black" d="M421.5,-684C421.5,-684 360.5,-684 360.5,-684 354.5,-684 348.5,-678 348.5,-672 348.5,-672 348.5,-660 348.5,-660 348.5,-654 354.5,-648 360.5,-648 360.5,-648 421.5,-648 421.5,-648 427.5,-648 433.5,-654 433.5,-660 433.5,-660 433.5,-672 433.5,-672 433.5,-678 427.5,-684 421.5,-684"/>
<text text-anchor="middle" x="391" y="-662.3" font-family="Times New Roman,serif" font-size="14.00">mul sigmoid</text>
</g>
<!-- CAtt.inp_10&#45;&gt;inp_CAtt.out_0 -->
<g id="edge46" class="edge">
<title>CAtt.inp_10&#45;&gt;inp_CAtt.out_0</title>
<path fill="none" stroke="black" d="M403.59,-1597.83C428.79,-1590.37 458.12,-1577.13 475,-1554 498.46,-1521.84 485,-1504.8 485,-1465 485,-1465 485,-1465 485,-809 485,-769.2 496.14,-753.73 475,-720 467.04,-707.3 454.8,-697.11 442.1,-689.2"/>
<polygon fill="black" stroke="black" points="443.69,-686.07 433.28,-684.08 440.17,-692.12 443.69,-686.07"/>
</g>
<!-- CAtt..56 -->
<g id="node31" class="node">
<title>CAtt..56</title>
<polygon fill="none" stroke="black" points="358,-1482 218,-1482 218,-1446 358,-1446 358,-1482"/>
<text text-anchor="middle" x="288" y="-1460.3" font-family="Times New Roman,serif" font-size="14.00">CAtt.conv1 (Conv2d)</text>
</g>
<!-- CAtt..54&#45;&gt;CAtt..56 -->
<g id="edge30" class="edge">
<title>CAtt..54&#45;&gt;CAtt..56</title>
<path fill="none" stroke="black" d="M163.36,-1517.88C186.02,-1508.26 214.47,-1496.19 238.47,-1486.01"/>
<polygon fill="black" stroke="black" points="239.93,-1489.2 247.77,-1482.07 237.19,-1482.75 239.93,-1489.2"/>
</g>
<!-- CAtt..55&#45;&gt;CAtt..56 -->
<g id="edge31" class="edge">
<title>CAtt..55&#45;&gt;CAtt..56</title>
<path fill="none" stroke="black" d="M339.94,-1517.7C331.5,-1509.14 321.18,-1498.66 311.96,-1489.3"/>
<polygon fill="black" stroke="black" points="314.37,-1486.77 304.86,-1482.1 309.39,-1491.68 314.37,-1486.77"/>
</g>
<!-- CAtt..57 -->
<g id="node32" class="node">
<title>CAtt..57</title>
<polygon fill="none" stroke="black" points="368,-1410 208,-1410 208,-1374 368,-1374 368,-1410"/>
<text text-anchor="middle" x="288" y="-1388.3" font-family="Times New Roman,serif" font-size="14.00">CAtt.bn1 (BatchNorm2d)</text>
</g>
<!-- CAtt..56&#45;&gt;CAtt..57 -->
<g id="edge32" class="edge">
<title>CAtt..56&#45;&gt;CAtt..57</title>
<path fill="none" stroke="black" d="M288,-1445.7C288,-1437.98 288,-1428.71 288,-1420.11"/>
<polygon fill="black" stroke="black" points="291.5,-1420.1 288,-1410.1 284.5,-1420.1 291.5,-1420.1"/>
</g>
<!-- CAtt.act.inp_1 -->
<g id="node33" class="node">
<title>CAtt.act.inp_1</title>
<ellipse fill="none" stroke="black" cx="288" cy="-1317" rx="64.19" ry="18"/>
<text text-anchor="middle" x="288" y="-1313.3" font-family="Times New Roman,serif" font-size="14.00">CAtt.act.inp_1</text>
</g>
<!-- CAtt..57&#45;&gt;CAtt.act.inp_1 -->
<g id="edge33" class="edge">
<title>CAtt..57&#45;&gt;CAtt.act.inp_1</title>
<path fill="none" stroke="black" d="M288,-1373.7C288,-1365.25 288,-1354.87 288,-1345.37"/>
<polygon fill="black" stroke="black" points="291.5,-1345.18 288,-1335.18 284.5,-1345.18 291.5,-1345.18"/>
</g>
<!-- CAtt.act.sigmoid.inp_1 -->
<g id="node34" class="node">
<title>CAtt.act.sigmoid.inp_1</title>
<ellipse fill="none" stroke="black" cx="262" cy="-1242" rx="95.58" ry="18"/>
<text text-anchor="middle" x="262" y="-1238.3" font-family="Times New Roman,serif" font-size="14.00">CAtt.act.sigmoid.inp_1</text>
</g>
<!-- CAtt.act.inp_1&#45;&gt;CAtt.act.sigmoid.inp_1 -->
<g id="edge34" class="edge">
<title>CAtt.act.inp_1&#45;&gt;CAtt.act.sigmoid.inp_1</title>
<path fill="none" stroke="black" d="M281.97,-1299.07C278.87,-1290.38 275.03,-1279.59 271.54,-1269.8"/>
<polygon fill="black" stroke="black" points="274.74,-1268.34 268.09,-1260.09 268.15,-1270.69 274.74,-1268.34"/>
</g>
<!-- inp_CAtt.act.out_0 -->
<g id="node40" class="node">
<title>inp_CAtt.act.out_0</title>
<path fill="none" stroke="black" d="M302,-900C302,-900 272,-900 272,-900 266,-900 260,-894 260,-888 260,-888 260,-876 260,-876 260,-870 266,-864 272,-864 272,-864 302,-864 302,-864 308,-864 314,-870 314,-876 314,-876 314,-888 314,-888 314,-894 308,-900 302,-900"/>
<text text-anchor="middle" x="287" y="-878.3" font-family="Times New Roman,serif" font-size="14.00">mul</text>
</g>
<!-- CAtt.act.inp_1&#45;&gt;inp_CAtt.act.out_0 -->
<g id="edge40" class="edge">
<title>CAtt.act.inp_1&#45;&gt;inp_CAtt.act.out_0</title>
<path fill="none" stroke="black" d="M334.2,-1304.28C351.41,-1299.47 367.42,-1294.28 370,-1291 386.52,-1270.01 377,-1197.71 377,-1171 377,-1171 377,-1171 377,-1025 377,-1003.39 381.74,-946.14 370,-928 357.41,-908.55 344.5,-911.39 323.05,-902.21"/>
<polygon fill="black" stroke="black" points="324.57,-899.06 314.04,-897.85 321.52,-905.36 324.57,-899.06"/>
</g>
<!-- CAtt.act.sigmoid.input.55 -->
<g id="node36" class="node">
<title>CAtt.act.sigmoid.input.55</title>
<path fill="none" stroke="black" d="M277,-1188C277,-1188 247,-1188 247,-1188 241,-1188 235,-1182 235,-1176 235,-1176 235,-1164 235,-1164 235,-1158 241,-1152 247,-1152 247,-1152 277,-1152 277,-1152 283,-1152 289,-1158 289,-1164 289,-1164 289,-1176 289,-1176 289,-1182 283,-1188 277,-1188"/>
<text text-anchor="middle" x="262" y="-1166.3" font-family="Times New Roman,serif" font-size="14.00">add</text>
</g>
<!-- CAtt.act.sigmoid.inp_1&#45;&gt;CAtt.act.sigmoid.input.55 -->
<g id="edge35" class="edge">
<title>CAtt.act.sigmoid.inp_1&#45;&gt;CAtt.act.sigmoid.input.55</title>
<path fill="none" stroke="black" d="M262,-1223.7C262,-1215.98 262,-1206.71 262,-1198.11"/>
<polygon fill="black" stroke="black" points="265.5,-1198.1 262,-1188.1 258.5,-1198.1 265.5,-1198.1"/>
</g>
<!-- CAtt.act.sigmoid..9 -->
<g id="node35" class="node">
<title>CAtt.act.sigmoid..9</title>
<polygon fill="none" stroke="black" points="356.5,-1116 167.5,-1116 167.5,-1080 356.5,-1080 356.5,-1116"/>
<text text-anchor="middle" x="262" y="-1094.3" font-family="Times New Roman,serif" font-size="14.00">CAtt.act.sigmoid.relu (ReLU6)</text>
</g>
<!-- inp_CAtt.act.sigmoid.out_0 -->
<g id="node38" class="node">
<title>inp_CAtt.act.sigmoid.out_0</title>
<path fill="none" stroke="black" d="M277,-1044C277,-1044 247,-1044 247,-1044 241,-1044 235,-1038 235,-1032 235,-1032 235,-1020 235,-1020 235,-1014 241,-1008 247,-1008 247,-1008 277,-1008 277,-1008 283,-1008 289,-1014 289,-1020 289,-1020 289,-1032 289,-1032 289,-1038 283,-1044 277,-1044"/>
<text text-anchor="middle" x="262" y="-1022.3" font-family="Times New Roman,serif" font-size="14.00">div</text>
</g>
<!-- CAtt.act.sigmoid..9&#45;&gt;inp_CAtt.act.sigmoid.out_0 -->
<g id="edge37" class="edge">
<title>CAtt.act.sigmoid..9&#45;&gt;inp_CAtt.act.sigmoid.out_0</title>
<path fill="none" stroke="black" d="M262,-1079.7C262,-1071.98 262,-1062.71 262,-1054.11"/>
<polygon fill="black" stroke="black" points="265.5,-1054.1 262,-1044.1 258.5,-1054.1 265.5,-1054.1"/>
</g>
<!-- CAtt.act.sigmoid.input.55&#45;&gt;CAtt.act.sigmoid..9 -->
<g id="edge36" class="edge">
<title>CAtt.act.sigmoid.input.55&#45;&gt;CAtt.act.sigmoid..9</title>
<path fill="none" stroke="black" d="M262,-1151.7C262,-1143.98 262,-1134.71 262,-1126.11"/>
<polygon fill="black" stroke="black" points="265.5,-1126.1 262,-1116.1 258.5,-1126.1 265.5,-1126.1"/>
</g>
<!-- CAtt.act.sigmoid.out_0 -->
<g id="node37" class="node">
<title>CAtt.act.sigmoid.out_0</title>
<ellipse fill="none" stroke="black" cx="262" cy="-954" rx="96.38" ry="18"/>
<text text-anchor="middle" x="262" y="-950.3" font-family="Times New Roman,serif" font-size="14.00">CAtt.act.sigmoid.out_0</text>
</g>
<!-- CAtt.act.sigmoid.out_0&#45;&gt;inp_CAtt.act.out_0 -->
<g id="edge39" class="edge">
<title>CAtt.act.sigmoid.out_0&#45;&gt;inp_CAtt.act.out_0</title>
<path fill="none" stroke="black" d="M268.18,-935.7C271,-927.81 274.39,-918.3 277.52,-909.55"/>
<polygon fill="black" stroke="black" points="280.82,-910.7 280.89,-900.1 274.23,-908.34 280.82,-910.7"/>
</g>
<!-- inp_CAtt.act.sigmoid.out_0&#45;&gt;CAtt.act.sigmoid.out_0 -->
<g id="edge38" class="edge">
<title>inp_CAtt.act.sigmoid.out_0&#45;&gt;CAtt.act.sigmoid.out_0</title>
<path fill="none" stroke="black" d="M262,-1007.7C262,-999.98 262,-990.71 262,-982.11"/>
<polygon fill="black" stroke="black" points="265.5,-982.1 262,-972.1 258.5,-982.1 265.5,-982.1"/>
</g>
<!-- CAtt.act.out_0 -->
<g id="node39" class="node">
<title>CAtt.act.out_0</title>
<ellipse fill="none" stroke="black" cx="287" cy="-810" rx="64.99" ry="18"/>
<text text-anchor="middle" x="287" y="-806.3" font-family="Times New Roman,serif" font-size="14.00">CAtt.act.out_0</text>
</g>
<!-- CAtt..59 -->
<g id="node41" class="node">
<title>CAtt..59</title>
<polygon fill="none" stroke="black" points="297.5,-756 150.5,-756 150.5,-720 297.5,-720 297.5,-756"/>
<text text-anchor="middle" x="224" y="-734.3" font-family="Times New Roman,serif" font-size="14.00">CAtt.conv_h (Conv2d)</text>
</g>
<!-- CAtt.act.out_0&#45;&gt;CAtt..59 -->
<g id="edge42" class="edge">
<title>CAtt.act.out_0&#45;&gt;CAtt..59</title>
<path fill="none" stroke="black" d="M272.07,-792.41C264.45,-783.95 255.03,-773.47 246.54,-764.05"/>
<polygon fill="black" stroke="black" points="248.99,-761.54 239.7,-756.45 243.79,-766.22 248.99,-761.54"/>
</g>
<!-- CAtt..60 -->
<g id="node42" class="node">
<title>CAtt..60</title>
<polygon fill="none" stroke="black" points="466,-756 316,-756 316,-720 466,-720 466,-756"/>
<text text-anchor="middle" x="391" y="-734.3" font-family="Times New Roman,serif" font-size="14.00">CAtt.conv_w (Conv2d)</text>
</g>
<!-- CAtt.act.out_0&#45;&gt;CAtt..60 -->
<g id="edge43" class="edge">
<title>CAtt.act.out_0&#45;&gt;CAtt..60</title>
<path fill="none" stroke="black" d="M310.6,-793.12C324.33,-783.88 341.86,-772.07 357.05,-761.85"/>
<polygon fill="black" stroke="black" points="359.34,-764.53 365.68,-756.04 355.43,-758.72 359.34,-764.53"/>
</g>
<!-- inp_CAtt.act.out_0&#45;&gt;CAtt.act.out_0 -->
<g id="edge41" class="edge">
<title>inp_CAtt.act.out_0&#45;&gt;CAtt.act.out_0</title>
<path fill="none" stroke="black" d="M287,-863.7C287,-855.98 287,-846.71 287,-838.11"/>
<polygon fill="black" stroke="black" points="290.5,-838.1 287,-828.1 283.5,-838.1 290.5,-838.1"/>
</g>
<!-- CAtt..59&#45;&gt;inp_CAtt.out_0 -->
<g id="edge44" class="edge">
<title>CAtt..59&#45;&gt;inp_CAtt.out_0</title>
<path fill="none" stroke="black" d="M264.85,-719.88C287.78,-710.26 316.58,-698.19 340.87,-688.01"/>
<polygon fill="black" stroke="black" points="342.41,-691.16 350.28,-684.07 339.7,-684.71 342.41,-691.16"/>
</g>
<!-- CAtt..60&#45;&gt;inp_CAtt.out_0 -->
<g id="edge45" class="edge">
<title>CAtt..60&#45;&gt;inp_CAtt.out_0</title>
<path fill="none" stroke="black" d="M391,-719.7C391,-711.98 391,-702.71 391,-694.11"/>
<polygon fill="black" stroke="black" points="394.5,-694.1 391,-684.1 387.5,-694.1 394.5,-694.1"/>
</g>
<!-- CAtt.out_0 -->
<g id="node43" class="node">
<title>CAtt.out_0</title>
<ellipse fill="none" stroke="black" cx="391" cy="-594" rx="51.99" ry="18"/>
<text text-anchor="middle" x="391" y="-590.3" font-family="Times New Roman,serif" font-size="14.00">CAtt.out_0</text>
</g>
<!-- .1204 -->
<g id="node45" class="node">
<title>.1204</title>
<polygon fill="none" stroke="black" points="432.5,-540 349.5,-540 349.5,-504 432.5,-504 432.5,-540"/>
<text text-anchor="middle" x="391" y="-518.3" font-family="Times New Roman,serif" font-size="14.00">relu (ReLU)</text>
</g>
<!-- CAtt.out_0&#45;&gt;.1204 -->
<g id="edge48" class="edge">
<title>CAtt.out_0&#45;&gt;.1204</title>
<path fill="none" stroke="black" d="M391,-575.7C391,-567.98 391,-558.71 391,-550.11"/>
<polygon fill="black" stroke="black" points="394.5,-550.1 391,-540.1 387.5,-550.1 394.5,-550.1"/>
</g>
<!-- inp_CAtt.out_0&#45;&gt;CAtt.out_0 -->
<g id="edge47" class="edge">
<title>inp_CAtt.out_0&#45;&gt;CAtt.out_0</title>
<path fill="none" stroke="black" d="M391,-647.7C391,-639.98 391,-630.71 391,-622.11"/>
<polygon fill="black" stroke="black" points="394.5,-622.1 391,-612.1 387.5,-622.1 394.5,-622.1"/>
</g>
<!-- .1205 -->
<g id="node46" class="node">
<title>.1205</title>
<polygon fill="none" stroke="black" points="382,-468 266,-468 266,-432 382,-432 382,-468"/>
<text text-anchor="middle" x="324" y="-446.3" font-family="Times New Roman,serif" font-size="14.00">convPa (Conv2d)</text>
</g>
<!-- .1204&#45;&gt;.1205 -->
<g id="edge49" class="edge">
<title>.1204&#45;&gt;.1205</title>
<path fill="none" stroke="black" d="M374.44,-503.7C366.32,-495.22 356.41,-484.86 347.53,-475.58"/>
<polygon fill="black" stroke="black" points="349.81,-472.91 340.37,-468.1 344.76,-477.75 349.81,-472.91"/>
</g>
<!-- .1210 -->
<g id="node51" class="node">
<title>.1210</title>
<polygon fill="none" stroke="black" points="523,-468 405,-468 405,-432 523,-432 523,-468"/>
<text text-anchor="middle" x="464" y="-446.3" font-family="Times New Roman,serif" font-size="14.00">convDa (Conv2d)</text>
</g>
<!-- .1204&#45;&gt;.1210 -->
<g id="edge54" class="edge">
<title>.1204&#45;&gt;.1210</title>
<path fill="none" stroke="black" d="M409.04,-503.7C418.06,-495.05 429.12,-484.45 438.94,-475.03"/>
<polygon fill="black" stroke="black" points="441.37,-477.55 446.16,-468.1 436.52,-472.5 441.37,-477.55"/>
</g>
<!-- .1206 -->
<g id="node47" class="node">
<title>.1206</title>
<polygon fill="none" stroke="black" points="382.5,-396 245.5,-396 245.5,-360 382.5,-360 382.5,-396"/>
<text text-anchor="middle" x="314" y="-374.3" font-family="Times New Roman,serif" font-size="14.00">bnPa (BatchNorm2d)</text>
</g>
<!-- .1205&#45;&gt;.1206 -->
<g id="edge50" class="edge">
<title>.1205&#45;&gt;.1206</title>
<path fill="none" stroke="black" d="M321.53,-431.7C320.43,-423.98 319.1,-414.71 317.87,-406.11"/>
<polygon fill="black" stroke="black" points="321.32,-405.51 316.44,-396.1 314.39,-406.5 321.32,-405.51"/>
</g>
<!-- .1207 -->
<g id="node48" class="node">
<title>.1207</title>
<polygon fill="none" stroke="black" points="355.5,-324 272.5,-324 272.5,-288 355.5,-288 355.5,-324"/>
<text text-anchor="middle" x="314" y="-302.3" font-family="Times New Roman,serif" font-size="14.00">relu (ReLU)</text>
</g>
<!-- .1206&#45;&gt;.1207 -->
<g id="edge51" class="edge">
<title>.1206&#45;&gt;.1207</title>
<path fill="none" stroke="black" d="M314,-359.7C314,-351.98 314,-342.71 314,-334.11"/>
<polygon fill="black" stroke="black" points="317.5,-334.1 314,-324.1 310.5,-334.1 317.5,-334.1"/>
</g>
<!-- .1208 -->
<g id="node49" class="node">
<title>.1208</title>
<polygon fill="none" stroke="black" points="373,-252 255,-252 255,-216 373,-216 373,-252"/>
<text text-anchor="middle" x="314" y="-230.3" font-family="Times New Roman,serif" font-size="14.00">convPb (Conv2d)</text>
</g>
<!-- .1207&#45;&gt;.1208 -->
<g id="edge52" class="edge">
<title>.1207&#45;&gt;.1208</title>
<path fill="none" stroke="black" d="M314,-287.7C314,-279.98 314,-270.71 314,-262.11"/>
<polygon fill="black" stroke="black" points="317.5,-262.1 314,-252.1 310.5,-262.1 317.5,-262.1"/>
</g>
<!-- .1209 -->
<g id="node50" class="node">
<title>.1209</title>
<polygon fill="none" stroke="black" points="383,-180 245,-180 245,-144 383,-144 383,-180"/>
<text text-anchor="middle" x="314" y="-158.3" font-family="Times New Roman,serif" font-size="14.00">bnPb (BatchNorm2d)</text>
</g>
<!-- .1208&#45;&gt;.1209 -->
<g id="edge53" class="edge">
<title>.1208&#45;&gt;.1209</title>
<path fill="none" stroke="black" d="M314,-215.7C314,-207.98 314,-198.71 314,-190.11"/>
<polygon fill="black" stroke="black" points="317.5,-190.1 314,-180.1 310.5,-190.1 317.5,-190.1"/>
</g>
<!-- inp_out_0 -->
<g id="node57" class="node">
<title>inp_out_0</title>
<path fill="none" stroke="black" d="M413.5,-108C413.5,-108 370.5,-108 370.5,-108 364.5,-108 358.5,-102 358.5,-96 358.5,-96 358.5,-84 358.5,-84 358.5,-78 364.5,-72 370.5,-72 370.5,-72 413.5,-72 413.5,-72 419.5,-72 425.5,-78 425.5,-84 425.5,-84 425.5,-96 425.5,-96 425.5,-102 419.5,-108 413.5,-108"/>
<text text-anchor="middle" x="392" y="-86.3" font-family="Times New Roman,serif" font-size="14.00">div norm</text>
</g>
<!-- .1209&#45;&gt;inp_out_0 -->
<g id="edge59" class="edge">
<title>.1209&#45;&gt;inp_out_0</title>
<path fill="none" stroke="black" d="M333.28,-143.7C342.92,-135.05 354.73,-124.45 365.23,-115.03"/>
<polygon fill="black" stroke="black" points="367.84,-117.39 372.94,-108.1 363.16,-112.18 367.84,-117.39"/>
</g>
<!-- .1211 -->
<g id="node52" class="node">
<title>.1211</title>
<polygon fill="none" stroke="black" points="539,-396 401,-396 401,-360 539,-360 539,-396"/>
<text text-anchor="middle" x="470" y="-374.3" font-family="Times New Roman,serif" font-size="14.00">bnDa (BatchNorm2d)</text>
</g>
<!-- .1210&#45;&gt;.1211 -->
<g id="edge55" class="edge">
<title>.1210&#45;&gt;.1211</title>
<path fill="none" stroke="black" d="M465.48,-431.7C466.14,-423.98 466.94,-414.71 467.68,-406.11"/>
<polygon fill="black" stroke="black" points="471.17,-406.37 468.53,-396.1 464.19,-405.77 471.17,-406.37"/>
</g>
<!-- .1212 -->
<g id="node53" class="node">
<title>.1212</title>
<polygon fill="none" stroke="black" points="511.5,-324 428.5,-324 428.5,-288 511.5,-288 511.5,-324"/>
<text text-anchor="middle" x="470" y="-302.3" font-family="Times New Roman,serif" font-size="14.00">relu (ReLU)</text>
</g>
<!-- .1211&#45;&gt;.1212 -->
<g id="edge56" class="edge">
<title>.1211&#45;&gt;.1212</title>
<path fill="none" stroke="black" d="M470,-359.7C470,-351.98 470,-342.71 470,-334.11"/>
<polygon fill="black" stroke="black" points="473.5,-334.1 470,-324.1 466.5,-334.1 473.5,-334.1"/>
</g>
<!-- .1213 -->
<g id="node54" class="node">
<title>.1213</title>
<polygon fill="none" stroke="black" points="529.5,-252 410.5,-252 410.5,-216 529.5,-216 529.5,-252"/>
<text text-anchor="middle" x="470" y="-230.3" font-family="Times New Roman,serif" font-size="14.00">convDb (Conv2d)</text>
</g>
<!-- .1212&#45;&gt;.1213 -->
<g id="edge57" class="edge">
<title>.1212&#45;&gt;.1213</title>
<path fill="none" stroke="black" d="M470,-287.7C470,-279.98 470,-270.71 470,-262.11"/>
<polygon fill="black" stroke="black" points="473.5,-262.1 470,-252.1 466.5,-262.1 473.5,-262.1"/>
</g>
<!-- .1214 -->
<g id="node55" class="node">
<title>.1214</title>
<polygon fill="none" stroke="black" points="541,-180 401,-180 401,-144 541,-144 541,-180"/>
<text text-anchor="middle" x="471" y="-158.3" font-family="Times New Roman,serif" font-size="14.00">bnDb (BatchNorm2d)</text>
</g>
<!-- .1213&#45;&gt;.1214 -->
<g id="edge58" class="edge">
<title>.1213&#45;&gt;.1214</title>
<path fill="none" stroke="black" d="M470.25,-215.7C470.36,-207.98 470.49,-198.71 470.61,-190.11"/>
<polygon fill="black" stroke="black" points="474.11,-190.15 470.76,-180.1 467.11,-190.05 474.11,-190.15"/>
</g>
<!-- .1214&#45;&gt;inp_out_0 -->
<g id="edge60" class="edge">
<title>.1214&#45;&gt;inp_out_0</title>
<path fill="none" stroke="black" d="M451.47,-143.7C441.62,-134.97 429.51,-124.24 418.8,-114.75"/>
<polygon fill="black" stroke="black" points="421.11,-112.12 411.3,-108.1 416.47,-117.36 421.11,-112.12"/>
</g>
<!-- out_0 -->
<g id="node56" class="node">
<title>out_0</title>
<ellipse fill="none" stroke="black" cx="392" cy="-18" rx="31.7" ry="18"/>
<text text-anchor="middle" x="392" y="-14.3" font-family="Times New Roman,serif" font-size="14.00">out_0</text>
</g>
<!-- inp_out_0&#45;&gt;out_0 -->
<g id="edge61" class="edge">
<title>inp_out_0&#45;&gt;out_0</title>
<path fill="none" stroke="black" d="M392,-71.7C392,-63.98 392,-54.71 392,-46.11"/>
<polygon fill="black" stroke="black" points="395.5,-46.1 392,-36.1 388.5,-46.1 395.5,-46.1"/>
</g>
</g>
</svg>
