<?xml version="1.0" encoding="UTF-8" standalone="no"?>
<!DOCTYPE svg PUBLIC "-//W3C//DTD SVG 1.1//EN"
 "http://www.w3.org/Graphics/SVG/1.1/DTD/svg11.dtd">
<!-- Generated by graphviz version 3.0.0 (20220226.1711)
 -->
<!-- Pages: 1 -->
<svg width="1156pt" height="3466pt"
 viewBox="0.00 0.00 1156.00 3466.00" xmlns="http://www.w3.org/2000/svg" xmlns:xlink="http://www.w3.org/1999/xlink">
<g id="graph0" class="graph" transform="scale(1 1) rotate(0) translate(4 3462)">
<polygon fill="white" stroke="transparent" points="-4,4 -4,-3462 1152,-3462 1152,4 -4,4"/>
<text text-anchor="middle" x="574" y="-3442.8" font-family="Times New Roman,serif" font-size="14.00">SuperPointNet</text>
<g id="clust1" class="cluster">
<title>cluster_.1340</title>
<polygon fill="none" stroke="black" points="8,-568 8,-1519 1140,-1519 1140,-568 8,-568"/>
<text text-anchor="middle" x="574" y="-1503.8" font-family="Times New Roman,serif" font-size="14.00">DAN (DAModule)</text>
</g>
<g id="clust2" class="cluster">
<title>cluster_DAN..37</title>
<polygon fill="none" stroke="black" points="16,-712 16,-1444 672,-1444 672,-712 16,-712"/>
<text text-anchor="middle" x="344" y="-1428.8" font-family="Times New Roman,serif" font-size="14.00">DAN.position_attention_module (PositionAttentionModule)</text>
</g>
<g id="clust3" class="cluster">
<title>cluster_DAN.position_attention_module..29</title>
<polygon fill="none" stroke="black" points="24,-784 24,-1294 664,-1294 664,-784 24,-784"/>
<text text-anchor="middle" x="344" y="-1278.8" font-family="Times New Roman,serif" font-size="14.00">DAN.position_attention_module.pa (ScaledDotProductAttention)</text>
</g>
<g id="clust4" class="cluster">
<title>cluster_DAN..38</title>
<polygon fill="none" stroke="black" points="680,-712 680,-1369 1132,-1369 1132,-712 680,-712"/>
<text text-anchor="middle" x="906" y="-1353.8" font-family="Times New Roman,serif" font-size="14.00">DAN.channel_attention_module (ChannelAttentionModule)</text>
</g>
<g id="clust5" class="cluster">
<title>cluster_DAN.channel_attention_module..24</title>
<polygon fill="none" stroke="black" points="688,-784 688,-1219 1124,-1219 1124,-784 688,-784"/>
<text text-anchor="middle" x="906" y="-1203.8" font-family="Times New Roman,serif" font-size="14.00">DAN.channel_attention_module.pa (SimplifiedScaledDotProductAttention)</text>
</g>
<!-- inp_x -->
<g id="node1" class="node">
<title>inp_x</title>
<ellipse fill="none" stroke="black" cx="629" cy="-3417" rx="31.4" ry="18"/>
<text text-anchor="middle" x="629" y="-3413.3" font-family="Times New Roman,serif" font-size="14.00">inp_x</text>
</g>
<!-- .1314 -->
<g id="node2" class="node">
<title>.1314</title>
<polygon fill="none" stroke="black" points="686.5,-3363 571.5,-3363 571.5,-3327 686.5,-3327 686.5,-3363"/>
<text text-anchor="middle" x="629" y="-3341.3" font-family="Times New Roman,serif" font-size="14.00">conv1a (Conv2d)</text>
</g>
<!-- inp_x&#45;&gt;.1314 -->
<g id="edge1" class="edge">
<title>inp_x&#45;&gt;.1314</title>
<path fill="none" stroke="black" d="M629,-3398.7C629,-3390.98 629,-3381.71 629,-3373.11"/>
<polygon fill="black" stroke="black" points="632.5,-3373.1 629,-3363.1 625.5,-3373.1 632.5,-3373.1"/>
</g>
<!-- .1315 -->
<g id="node3" class="node">
<title>.1315</title>
<polygon fill="none" stroke="black" points="696.5,-3291 561.5,-3291 561.5,-3255 696.5,-3255 696.5,-3291"/>
<text text-anchor="middle" x="629" y="-3269.3" font-family="Times New Roman,serif" font-size="14.00">bn1a (BatchNorm2d)</text>
</g>
<!-- .1314&#45;&gt;.1315 -->
<g id="edge2" class="edge">
<title>.1314&#45;&gt;.1315</title>
<path fill="none" stroke="black" d="M629,-3326.7C629,-3318.98 629,-3309.71 629,-3301.11"/>
<polygon fill="black" stroke="black" points="632.5,-3301.1 629,-3291.1 625.5,-3301.1 632.5,-3301.1"/>
</g>
<!-- .1316 -->
<g id="node4" class="node">
<title>.1316</title>
<polygon fill="none" stroke="black" points="670.5,-3219 587.5,-3219 587.5,-3183 670.5,-3183 670.5,-3219"/>
<text text-anchor="middle" x="629" y="-3197.3" font-family="Times New Roman,serif" font-size="14.00">relu (ReLU)</text>
</g>
<!-- .1315&#45;&gt;.1316 -->
<g id="edge3" class="edge">
<title>.1315&#45;&gt;.1316</title>
<path fill="none" stroke="black" d="M629,-3254.7C629,-3246.98 629,-3237.71 629,-3229.11"/>
<polygon fill="black" stroke="black" points="632.5,-3229.1 629,-3219.1 625.5,-3229.1 632.5,-3229.1"/>
</g>
<!-- .1317 -->
<g id="node5" class="node">
<title>.1317</title>
<polygon fill="none" stroke="black" points="687,-3147 571,-3147 571,-3111 687,-3111 687,-3147"/>
<text text-anchor="middle" x="629" y="-3125.3" font-family="Times New Roman,serif" font-size="14.00">conv1b (Conv2d)</text>
</g>
<!-- .1316&#45;&gt;.1317 -->
<g id="edge4" class="edge">
<title>.1316&#45;&gt;.1317</title>
<path fill="none" stroke="black" d="M629,-3182.7C629,-3174.98 629,-3165.71 629,-3157.11"/>
<polygon fill="black" stroke="black" points="632.5,-3157.1 629,-3147.1 625.5,-3157.1 632.5,-3157.1"/>
</g>
<!-- .1318 -->
<g id="node6" class="node">
<title>.1318</title>
<polygon fill="none" stroke="black" points="697.5,-3075 560.5,-3075 560.5,-3039 697.5,-3039 697.5,-3075"/>
<text text-anchor="middle" x="629" y="-3053.3" font-family="Times New Roman,serif" font-size="14.00">bn1b (BatchNorm2d)</text>
</g>
<!-- .1317&#45;&gt;.1318 -->
<g id="edge5" class="edge">
<title>.1317&#45;&gt;.1318</title>
<path fill="none" stroke="black" d="M629,-3110.7C629,-3102.98 629,-3093.71 629,-3085.11"/>
<polygon fill="black" stroke="black" points="632.5,-3085.1 629,-3075.1 625.5,-3085.1 632.5,-3085.1"/>
</g>
<!-- .1319 -->
<g id="node7" class="node">
<title>.1319</title>
<polygon fill="none" stroke="black" points="670.5,-3003 587.5,-3003 587.5,-2967 670.5,-2967 670.5,-3003"/>
<text text-anchor="middle" x="629" y="-2981.3" font-family="Times New Roman,serif" font-size="14.00">relu (ReLU)</text>
</g>
<!-- .1318&#45;&gt;.1319 -->
<g id="edge6" class="edge">
<title>.1318&#45;&gt;.1319</title>
<path fill="none" stroke="black" d="M629,-3038.7C629,-3030.98 629,-3021.71 629,-3013.11"/>
<polygon fill="black" stroke="black" points="632.5,-3013.1 629,-3003.1 625.5,-3013.1 632.5,-3013.1"/>
</g>
<!-- .1320 -->
<g id="node8" class="node">
<title>.1320</title>
<polygon fill="none" stroke="black" points="689,-2931 569,-2931 569,-2895 689,-2895 689,-2931"/>
<text text-anchor="middle" x="629" y="-2909.3" font-family="Times New Roman,serif" font-size="14.00">pool (MaxPool2d)</text>
</g>
<!-- .1319&#45;&gt;.1320 -->
<g id="edge7" class="edge">
<title>.1319&#45;&gt;.1320</title>
<path fill="none" stroke="black" d="M629,-2966.7C629,-2958.98 629,-2949.71 629,-2941.11"/>
<polygon fill="black" stroke="black" points="632.5,-2941.1 629,-2931.1 625.5,-2941.1 632.5,-2941.1"/>
</g>
<!-- .1321 -->
<g id="node9" class="node">
<title>.1321</title>
<polygon fill="none" stroke="black" points="686.5,-2859 571.5,-2859 571.5,-2823 686.5,-2823 686.5,-2859"/>
<text text-anchor="middle" x="629" y="-2837.3" font-family="Times New Roman,serif" font-size="14.00">conv2a (Conv2d)</text>
</g>
<!-- .1320&#45;&gt;.1321 -->
<g id="edge8" class="edge">
<title>.1320&#45;&gt;.1321</title>
<path fill="none" stroke="black" d="M629,-2894.7C629,-2886.98 629,-2877.71 629,-2869.11"/>
<polygon fill="black" stroke="black" points="632.5,-2869.1 629,-2859.1 625.5,-2869.1 632.5,-2869.1"/>
</g>
<!-- .1322 -->
<g id="node10" class="node">
<title>.1322</title>
<polygon fill="none" stroke="black" points="696.5,-2787 561.5,-2787 561.5,-2751 696.5,-2751 696.5,-2787"/>
<text text-anchor="middle" x="629" y="-2765.3" font-family="Times New Roman,serif" font-size="14.00">bn2a (BatchNorm2d)</text>
</g>
<!-- .1321&#45;&gt;.1322 -->
<g id="edge9" class="edge">
<title>.1321&#45;&gt;.1322</title>
<path fill="none" stroke="black" d="M629,-2822.7C629,-2814.98 629,-2805.71 629,-2797.11"/>
<polygon fill="black" stroke="black" points="632.5,-2797.1 629,-2787.1 625.5,-2797.1 632.5,-2797.1"/>
</g>
<!-- .1323 -->
<g id="node11" class="node">
<title>.1323</title>
<polygon fill="none" stroke="black" points="670.5,-2715 587.5,-2715 587.5,-2679 670.5,-2679 670.5,-2715"/>
<text text-anchor="middle" x="629" y="-2693.3" font-family="Times New Roman,serif" font-size="14.00">relu (ReLU)</text>
</g>
<!-- .1322&#45;&gt;.1323 -->
<g id="edge10" class="edge">
<title>.1322&#45;&gt;.1323</title>
<path fill="none" stroke="black" d="M629,-2750.7C629,-2742.98 629,-2733.71 629,-2725.11"/>
<polygon fill="black" stroke="black" points="632.5,-2725.1 629,-2715.1 625.5,-2725.1 632.5,-2725.1"/>
</g>
<!-- .1324 -->
<g id="node12" class="node">
<title>.1324</title>
<polygon fill="none" stroke="black" points="687,-2643 571,-2643 571,-2607 687,-2607 687,-2643"/>
<text text-anchor="middle" x="629" y="-2621.3" font-family="Times New Roman,serif" font-size="14.00">conv2b (Conv2d)</text>
</g>
<!-- .1323&#45;&gt;.1324 -->
<g id="edge11" class="edge">
<title>.1323&#45;&gt;.1324</title>
<path fill="none" stroke="black" d="M629,-2678.7C629,-2670.98 629,-2661.71 629,-2653.11"/>
<polygon fill="black" stroke="black" points="632.5,-2653.1 629,-2643.1 625.5,-2653.1 632.5,-2653.1"/>
</g>
<!-- .1325 -->
<g id="node13" class="node">
<title>.1325</title>
<polygon fill="none" stroke="black" points="697.5,-2571 560.5,-2571 560.5,-2535 697.5,-2535 697.5,-2571"/>
<text text-anchor="middle" x="629" y="-2549.3" font-family="Times New Roman,serif" font-size="14.00">bn2b (BatchNorm2d)</text>
</g>
<!-- .1324&#45;&gt;.1325 -->
<g id="edge12" class="edge">
<title>.1324&#45;&gt;.1325</title>
<path fill="none" stroke="black" d="M629,-2606.7C629,-2598.98 629,-2589.71 629,-2581.11"/>
<polygon fill="black" stroke="black" points="632.5,-2581.1 629,-2571.1 625.5,-2581.1 632.5,-2581.1"/>
</g>
<!-- .1326 -->
<g id="node14" class="node">
<title>.1326</title>
<polygon fill="none" stroke="black" points="670.5,-2499 587.5,-2499 587.5,-2463 670.5,-2463 670.5,-2499"/>
<text text-anchor="middle" x="629" y="-2477.3" font-family="Times New Roman,serif" font-size="14.00">relu (ReLU)</text>
</g>
<!-- .1325&#45;&gt;.1326 -->
<g id="edge13" class="edge">
<title>.1325&#45;&gt;.1326</title>
<path fill="none" stroke="black" d="M629,-2534.7C629,-2526.98 629,-2517.71 629,-2509.11"/>
<polygon fill="black" stroke="black" points="632.5,-2509.1 629,-2499.1 625.5,-2509.1 632.5,-2509.1"/>
</g>
<!-- .1327 -->
<g id="node15" class="node">
<title>.1327</title>
<polygon fill="none" stroke="black" points="689,-2427 569,-2427 569,-2391 689,-2391 689,-2427"/>
<text text-anchor="middle" x="629" y="-2405.3" font-family="Times New Roman,serif" font-size="14.00">pool (MaxPool2d)</text>
</g>
<!-- .1326&#45;&gt;.1327 -->
<g id="edge14" class="edge">
<title>.1326&#45;&gt;.1327</title>
<path fill="none" stroke="black" d="M629,-2462.7C629,-2454.98 629,-2445.71 629,-2437.11"/>
<polygon fill="black" stroke="black" points="632.5,-2437.1 629,-2427.1 625.5,-2437.1 632.5,-2437.1"/>
</g>
<!-- .1328 -->
<g id="node16" class="node">
<title>.1328</title>
<polygon fill="none" stroke="black" points="686.5,-2355 571.5,-2355 571.5,-2319 686.5,-2319 686.5,-2355"/>
<text text-anchor="middle" x="629" y="-2333.3" font-family="Times New Roman,serif" font-size="14.00">conv3a (Conv2d)</text>
</g>
<!-- .1327&#45;&gt;.1328 -->
<g id="edge15" class="edge">
<title>.1327&#45;&gt;.1328</title>
<path fill="none" stroke="black" d="M629,-2390.7C629,-2382.98 629,-2373.71 629,-2365.11"/>
<polygon fill="black" stroke="black" points="632.5,-2365.1 629,-2355.1 625.5,-2365.1 632.5,-2365.1"/>
</g>
<!-- .1329 -->
<g id="node17" class="node">
<title>.1329</title>
<polygon fill="none" stroke="black" points="696.5,-2283 561.5,-2283 561.5,-2247 696.5,-2247 696.5,-2283"/>
<text text-anchor="middle" x="629" y="-2261.3" font-family="Times New Roman,serif" font-size="14.00">bn3a (BatchNorm2d)</text>
</g>
<!-- .1328&#45;&gt;.1329 -->
<g id="edge16" class="edge">
<title>.1328&#45;&gt;.1329</title>
<path fill="none" stroke="black" d="M629,-2318.7C629,-2310.98 629,-2301.71 629,-2293.11"/>
<polygon fill="black" stroke="black" points="632.5,-2293.1 629,-2283.1 625.5,-2293.1 632.5,-2293.1"/>
</g>
<!-- .1330 -->
<g id="node18" class="node">
<title>.1330</title>
<polygon fill="none" stroke="black" points="670.5,-2211 587.5,-2211 587.5,-2175 670.5,-2175 670.5,-2211"/>
<text text-anchor="middle" x="629" y="-2189.3" font-family="Times New Roman,serif" font-size="14.00">relu (ReLU)</text>
</g>
<!-- .1329&#45;&gt;.1330 -->
<g id="edge17" class="edge">
<title>.1329&#45;&gt;.1330</title>
<path fill="none" stroke="black" d="M629,-2246.7C629,-2238.98 629,-2229.71 629,-2221.11"/>
<polygon fill="black" stroke="black" points="632.5,-2221.1 629,-2211.1 625.5,-2221.1 632.5,-2221.1"/>
</g>
<!-- .1331 -->
<g id="node19" class="node">
<title>.1331</title>
<polygon fill="none" stroke="black" points="687,-2139 571,-2139 571,-2103 687,-2103 687,-2139"/>
<text text-anchor="middle" x="629" y="-2117.3" font-family="Times New Roman,serif" font-size="14.00">conv3b (Conv2d)</text>
</g>
<!-- .1330&#45;&gt;.1331 -->
<g id="edge18" class="edge">
<title>.1330&#45;&gt;.1331</title>
<path fill="none" stroke="black" d="M629,-2174.7C629,-2166.98 629,-2157.71 629,-2149.11"/>
<polygon fill="black" stroke="black" points="632.5,-2149.1 629,-2139.1 625.5,-2149.1 632.5,-2149.1"/>
</g>
<!-- .1332 -->
<g id="node20" class="node">
<title>.1332</title>
<polygon fill="none" stroke="black" points="697.5,-2067 560.5,-2067 560.5,-2031 697.5,-2031 697.5,-2067"/>
<text text-anchor="middle" x="629" y="-2045.3" font-family="Times New Roman,serif" font-size="14.00">bn3b (BatchNorm2d)</text>
</g>
<!-- .1331&#45;&gt;.1332 -->
<g id="edge19" class="edge">
<title>.1331&#45;&gt;.1332</title>
<path fill="none" stroke="black" d="M629,-2102.7C629,-2094.98 629,-2085.71 629,-2077.11"/>
<polygon fill="black" stroke="black" points="632.5,-2077.1 629,-2067.1 625.5,-2077.1 632.5,-2077.1"/>
</g>
<!-- .1333 -->
<g id="node21" class="node">
<title>.1333</title>
<polygon fill="none" stroke="black" points="670.5,-1995 587.5,-1995 587.5,-1959 670.5,-1959 670.5,-1995"/>
<text text-anchor="middle" x="629" y="-1973.3" font-family="Times New Roman,serif" font-size="14.00">relu (ReLU)</text>
</g>
<!-- .1332&#45;&gt;.1333 -->
<g id="edge20" class="edge">
<title>.1332&#45;&gt;.1333</title>
<path fill="none" stroke="black" d="M629,-2030.7C629,-2022.98 629,-2013.71 629,-2005.11"/>
<polygon fill="black" stroke="black" points="632.5,-2005.1 629,-1995.1 625.5,-2005.1 632.5,-2005.1"/>
</g>
<!-- .1334 -->
<g id="node22" class="node">
<title>.1334</title>
<polygon fill="none" stroke="black" points="689,-1923 569,-1923 569,-1887 689,-1887 689,-1923"/>
<text text-anchor="middle" x="629" y="-1901.3" font-family="Times New Roman,serif" font-size="14.00">pool (MaxPool2d)</text>
</g>
<!-- .1333&#45;&gt;.1334 -->
<g id="edge21" class="edge">
<title>.1333&#45;&gt;.1334</title>
<path fill="none" stroke="black" d="M629,-1958.7C629,-1950.98 629,-1941.71 629,-1933.11"/>
<polygon fill="black" stroke="black" points="632.5,-1933.1 629,-1923.1 625.5,-1933.1 632.5,-1933.1"/>
</g>
<!-- .1335 -->
<g id="node23" class="node">
<title>.1335</title>
<polygon fill="none" stroke="black" points="686.5,-1851 571.5,-1851 571.5,-1815 686.5,-1815 686.5,-1851"/>
<text text-anchor="middle" x="629" y="-1829.3" font-family="Times New Roman,serif" font-size="14.00">conv4a (Conv2d)</text>
</g>
<!-- .1334&#45;&gt;.1335 -->
<g id="edge22" class="edge">
<title>.1334&#45;&gt;.1335</title>
<path fill="none" stroke="black" d="M629,-1886.7C629,-1878.98 629,-1869.71 629,-1861.11"/>
<polygon fill="black" stroke="black" points="632.5,-1861.1 629,-1851.1 625.5,-1861.1 632.5,-1861.1"/>
</g>
<!-- .1336 -->
<g id="node24" class="node">
<title>.1336</title>
<polygon fill="none" stroke="black" points="696.5,-1779 561.5,-1779 561.5,-1743 696.5,-1743 696.5,-1779"/>
<text text-anchor="middle" x="629" y="-1757.3" font-family="Times New Roman,serif" font-size="14.00">bn4a (BatchNorm2d)</text>
</g>
<!-- .1335&#45;&gt;.1336 -->
<g id="edge23" class="edge">
<title>.1335&#45;&gt;.1336</title>
<path fill="none" stroke="black" d="M629,-1814.7C629,-1806.98 629,-1797.71 629,-1789.11"/>
<polygon fill="black" stroke="black" points="632.5,-1789.1 629,-1779.1 625.5,-1789.1 632.5,-1789.1"/>
</g>
<!-- .1337 -->
<g id="node25" class="node">
<title>.1337</title>
<polygon fill="none" stroke="black" points="670.5,-1707 587.5,-1707 587.5,-1671 670.5,-1671 670.5,-1707"/>
<text text-anchor="middle" x="629" y="-1685.3" font-family="Times New Roman,serif" font-size="14.00">relu (ReLU)</text>
</g>
<!-- .1336&#45;&gt;.1337 -->
<g id="edge24" class="edge">
<title>.1336&#45;&gt;.1337</title>
<path fill="none" stroke="black" d="M629,-1742.7C629,-1734.98 629,-1725.71 629,-1717.11"/>
<polygon fill="black" stroke="black" points="632.5,-1717.1 629,-1707.1 625.5,-1717.1 632.5,-1717.1"/>
</g>
<!-- .1338 -->
<g id="node26" class="node">
<title>.1338</title>
<polygon fill="none" stroke="black" points="687,-1635 571,-1635 571,-1599 687,-1599 687,-1635"/>
<text text-anchor="middle" x="629" y="-1613.3" font-family="Times New Roman,serif" font-size="14.00">conv4b (Conv2d)</text>
</g>
<!-- .1337&#45;&gt;.1338 -->
<g id="edge25" class="edge">
<title>.1337&#45;&gt;.1338</title>
<path fill="none" stroke="black" d="M629,-1670.7C629,-1662.98 629,-1653.71 629,-1645.11"/>
<polygon fill="black" stroke="black" points="632.5,-1645.1 629,-1635.1 625.5,-1645.1 632.5,-1645.1"/>
</g>
<!-- .1339 -->
<g id="node27" class="node">
<title>.1339</title>
<polygon fill="none" stroke="black" points="697.5,-1563 560.5,-1563 560.5,-1527 697.5,-1527 697.5,-1563"/>
<text text-anchor="middle" x="629" y="-1541.3" font-family="Times New Roman,serif" font-size="14.00">bn4b (BatchNorm2d)</text>
</g>
<!-- .1338&#45;&gt;.1339 -->
<g id="edge26" class="edge">
<title>.1338&#45;&gt;.1339</title>
<path fill="none" stroke="black" d="M629,-1598.7C629,-1590.98 629,-1581.71 629,-1573.11"/>
<polygon fill="black" stroke="black" points="632.5,-1573.1 629,-1563.1 625.5,-1573.1 632.5,-1573.1"/>
</g>
<!-- DAN.inp_5 -->
<g id="node28" class="node">
<title>DAN.inp_5</title>
<ellipse fill="none" stroke="black" cx="629" cy="-1470" rx="52.79" ry="18"/>
<text text-anchor="middle" x="629" y="-1466.3" font-family="Times New Roman,serif" font-size="14.00">DAN.inp_5</text>
</g>
<!-- .1339&#45;&gt;DAN.inp_5 -->
<g id="edge27" class="edge">
<title>.1339&#45;&gt;DAN.inp_5</title>
<path fill="none" stroke="black" d="M629,-1526.7C629,-1518.25 629,-1507.87 629,-1498.37"/>
<polygon fill="black" stroke="black" points="632.5,-1498.18 629,-1488.18 625.5,-1498.18 632.5,-1498.18"/>
</g>
<!-- DAN.position_attention_module.inp_1 -->
<g id="node29" class="node">
<title>DAN.position_attention_module.inp_1</title>
<ellipse fill="none" stroke="black" cx="500" cy="-1395" rx="151.37" ry="18"/>
<text text-anchor="middle" x="500" y="-1391.3" font-family="Times New Roman,serif" font-size="14.00">DAN.position_attention_module.inp_1</text>
</g>
<!-- DAN.inp_5&#45;&gt;DAN.position_attention_module.inp_1 -->
<g id="edge28" class="edge">
<title>DAN.inp_5&#45;&gt;DAN.position_attention_module.inp_1</title>
<path fill="none" stroke="black" d="M602.89,-1454.23C584.43,-1443.78 559.35,-1429.59 538.58,-1417.83"/>
<polygon fill="black" stroke="black" points="540.1,-1414.67 529.68,-1412.79 536.66,-1420.76 540.1,-1414.67"/>
</g>
<!-- DAN.channel_attention_module.inp_1 -->
<g id="node41" class="node">
<title>DAN.channel_attention_module.inp_1</title>
<ellipse fill="none" stroke="black" cx="858" cy="-1320" rx="149.47" ry="18"/>
<text text-anchor="middle" x="858" y="-1316.3" font-family="Times New Roman,serif" font-size="14.00">DAN.channel_attention_module.inp_1</text>
</g>
<!-- DAN.inp_5&#45;&gt;DAN.channel_attention_module.inp_1 -->
<g id="edge42" class="edge">
<title>DAN.inp_5&#45;&gt;DAN.channel_attention_module.inp_1</title>
<path fill="none" stroke="black" d="M657.11,-1454.67C663.39,-1451.3 669.98,-1447.62 676,-1444 730.08,-1411.47 790.29,-1369.6 826.11,-1344.06"/>
<polygon fill="black" stroke="black" points="828.57,-1346.6 834.67,-1337.93 824.5,-1340.91 828.57,-1346.6"/>
</g>
<!-- DAN.position_attention_module..28 -->
<g id="node30" class="node">
<title>DAN.position_attention_module..28</title>
<polygon fill="none" stroke="black" points="617,-1338 337,-1338 337,-1302 617,-1302 617,-1338"/>
<text text-anchor="middle" x="477" y="-1316.3" font-family="Times New Roman,serif" font-size="14.00">DAN.position_attention_module.cnn (Conv2d)</text>
</g>
<!-- DAN.position_attention_module.inp_1&#45;&gt;DAN.position_attention_module..28 -->
<g id="edge29" class="edge">
<title>DAN.position_attention_module.inp_1&#45;&gt;DAN.position_attention_module..28</title>
<path fill="none" stroke="black" d="M494.55,-1376.7C491.83,-1368.06 488.48,-1357.42 485.43,-1347.76"/>
<polygon fill="black" stroke="black" points="488.75,-1346.66 482.41,-1338.18 482.08,-1348.77 488.75,-1346.66"/>
</g>
<!-- DAN.position_attention_module.pa.inp_queries.1 -->
<g id="node31" class="node">
<title>DAN.position_attention_module.pa.inp_queries.1</title>
<ellipse fill="none" stroke="black" cx="465" cy="-1245" rx="191.17" ry="18"/>
<text text-anchor="middle" x="465" y="-1241.3" font-family="Times New Roman,serif" font-size="14.00">DAN.position_attention_module.pa.inp_queries.1</text>
</g>
<!-- DAN.position_attention_module..28&#45;&gt;DAN.position_attention_module.pa.inp_queries.1 -->
<g id="edge30" class="edge">
<title>DAN.position_attention_module..28&#45;&gt;DAN.position_attention_module.pa.inp_queries.1</title>
<path fill="none" stroke="black" d="M474.16,-1301.7C472.75,-1293.15 471.02,-1282.65 469.45,-1273.07"/>
<polygon fill="black" stroke="black" points="472.9,-1272.48 467.82,-1263.18 465.99,-1273.61 472.9,-1272.48"/>
</g>
<!-- DAN.position_attention_module.pa..86 -->
<g id="node32" class="node">
<title>DAN.position_attention_module.pa..86</title>
<polygon fill="none" stroke="black" points="325.5,-1188 32.5,-1188 32.5,-1152 325.5,-1152 325.5,-1188"/>
<text text-anchor="middle" x="179" y="-1166.3" font-family="Times New Roman,serif" font-size="14.00">DAN.position_attention_module.pa.fc_q (Linear)</text>
</g>
<!-- DAN.position_attention_module.pa.inp_queries.1&#45;&gt;DAN.position_attention_module.pa..86 -->
<g id="edge31" class="edge">
<title>DAN.position_attention_module.pa.inp_queries.1&#45;&gt;DAN.position_attention_module.pa..86</title>
<path fill="none" stroke="black" d="M379.05,-1228.84C364.3,-1225.85 349.16,-1222.53 335,-1219 303.15,-1211.06 268.18,-1200.48 239.44,-1191.27"/>
<polygon fill="black" stroke="black" points="240.14,-1187.82 229.55,-1188.08 237.99,-1194.48 240.14,-1187.82"/>
</g>
<!-- DAN.position_attention_module.pa..87 -->
<g id="node33" class="node">
<title>DAN.position_attention_module.pa..87</title>
<polygon fill="none" stroke="black" points="636,-1188 344,-1188 344,-1152 636,-1152 636,-1188"/>
<text text-anchor="middle" x="490" y="-1166.3" font-family="Times New Roman,serif" font-size="14.00">DAN.position_attention_module.pa.fc_k (Linear)</text>
</g>
<!-- DAN.position_attention_module.pa.inp_queries.1&#45;&gt;DAN.position_attention_module.pa..87 -->
<g id="edge32" class="edge">
<title>DAN.position_attention_module.pa.inp_queries.1&#45;&gt;DAN.position_attention_module.pa..87</title>
<path fill="none" stroke="black" d="M470.92,-1226.7C473.88,-1218.06 477.53,-1207.42 480.83,-1197.76"/>
<polygon fill="black" stroke="black" points="484.19,-1198.77 484.12,-1188.18 477.57,-1196.5 484.19,-1198.77"/>
</g>
<!-- DAN.position_attention_module.pa..88 -->
<g id="node34" class="node">
<title>DAN.position_attention_module.pa..88</title>
<polygon fill="none" stroke="black" points="656,-1116 364,-1116 364,-1080 656,-1080 656,-1116"/>
<text text-anchor="middle" x="510" y="-1094.3" font-family="Times New Roman,serif" font-size="14.00">DAN.position_attention_module.pa.fc_v (Linear)</text>
</g>
<!-- DAN.position_attention_module.pa.inp_queries.1&#45;&gt;DAN.position_attention_module.pa..88 -->
<g id="edge33" class="edge">
<title>DAN.position_attention_module.pa.inp_queries.1&#45;&gt;DAN.position_attention_module.pa..88</title>
<path fill="none" stroke="black" d="M614.69,-1233.67C628.58,-1230.07 639.51,-1225.31 645,-1219 664.55,-1196.54 661.77,-1176.6 645,-1152 635.6,-1138.22 622.03,-1128.02 607.07,-1120.47"/>
<polygon fill="black" stroke="black" points="608.15,-1117.11 597.6,-1116.11 605.22,-1123.47 608.15,-1117.11"/>
</g>
<!-- DAN.position_attention_module.pa.input.53 -->
<g id="node36" class="node">
<title>DAN.position_attention_module.pa.input.53</title>
<path fill="none" stroke="black" d="M333.5,-1116C333.5,-1116 230.5,-1116 230.5,-1116 224.5,-1116 218.5,-1110 218.5,-1104 218.5,-1104 218.5,-1092 218.5,-1092 218.5,-1086 224.5,-1080 230.5,-1080 230.5,-1080 333.5,-1080 333.5,-1080 339.5,-1080 345.5,-1086 345.5,-1092 345.5,-1092 345.5,-1104 345.5,-1104 345.5,-1110 339.5,-1116 333.5,-1116"/>
<text text-anchor="middle" x="282" y="-1094.3" font-family="Times New Roman,serif" font-size="14.00">div softmax matmul</text>
</g>
<!-- DAN.position_attention_module.pa..86&#45;&gt;DAN.position_attention_module.pa.input.53 -->
<g id="edge35" class="edge">
<title>DAN.position_attention_module.pa..86&#45;&gt;DAN.position_attention_module.pa.input.53</title>
<path fill="none" stroke="black" d="M204.2,-1151.88C217.41,-1142.89 233.79,-1131.76 248.11,-1122.03"/>
<polygon fill="black" stroke="black" points="250.4,-1124.71 256.71,-1116.19 246.47,-1118.92 250.4,-1124.71"/>
</g>
<!-- DAN.position_attention_module.pa..87&#45;&gt;DAN.position_attention_module.pa.input.53 -->
<g id="edge34" class="edge">
<title>DAN.position_attention_module.pa..87&#45;&gt;DAN.position_attention_module.pa.input.53</title>
<path fill="none" stroke="black" d="M439.38,-1151.97C410.19,-1142.14 373.31,-1129.73 342.58,-1119.39"/>
<polygon fill="black" stroke="black" points="343.44,-1115.98 332.84,-1116.11 341.2,-1122.62 343.44,-1115.98"/>
</g>
<!-- DAN.position_attention_module.pa.input.55 -->
<g id="node38" class="node">
<title>DAN.position_attention_module.pa.input.55</title>
<path fill="none" stroke="black" d="M509.5,-972C509.5,-972 476.5,-972 476.5,-972 470.5,-972 464.5,-966 464.5,-960 464.5,-960 464.5,-948 464.5,-948 464.5,-942 470.5,-936 476.5,-936 476.5,-936 509.5,-936 509.5,-936 515.5,-936 521.5,-942 521.5,-948 521.5,-948 521.5,-960 521.5,-960 521.5,-966 515.5,-972 509.5,-972"/>
<text text-anchor="middle" x="493" y="-950.3" font-family="Times New Roman,serif" font-size="14.00">matmul</text>
</g>
<!-- DAN.position_attention_module.pa..88&#45;&gt;DAN.position_attention_module.pa.input.55 -->
<g id="edge38" class="edge">
<title>DAN.position_attention_module.pa..88&#45;&gt;DAN.position_attention_module.pa.input.55</title>
<path fill="none" stroke="black" d="M507.95,-1079.87C505.05,-1055.67 499.73,-1011.21 496.28,-982.39"/>
<polygon fill="black" stroke="black" points="499.72,-981.7 495.06,-972.19 492.77,-982.53 499.72,-981.7"/>
</g>
<!-- DAN.position_attention_module.pa..89 -->
<g id="node35" class="node">
<title>DAN.position_attention_module.pa..89</title>
<polygon fill="none" stroke="black" points="460,-1044 136,-1044 136,-1008 460,-1008 460,-1044"/>
<text text-anchor="middle" x="298" y="-1022.3" font-family="Times New Roman,serif" font-size="14.00">DAN.position_attention_module.pa.dropout (Dropout)</text>
</g>
<!-- DAN.position_attention_module.pa..89&#45;&gt;DAN.position_attention_module.pa.input.55 -->
<g id="edge37" class="edge">
<title>DAN.position_attention_module.pa..89&#45;&gt;DAN.position_attention_module.pa.input.55</title>
<path fill="none" stroke="black" d="M345.7,-1007.88C379.18,-995.86 423.35,-980 454.57,-968.8"/>
<polygon fill="black" stroke="black" points="455.99,-972.01 464.22,-965.33 453.62,-965.42 455.99,-972.01"/>
</g>
<!-- DAN.position_attention_module.pa.input.53&#45;&gt;DAN.position_attention_module.pa..89 -->
<g id="edge36" class="edge">
<title>DAN.position_attention_module.pa.input.53&#45;&gt;DAN.position_attention_module.pa..89</title>
<path fill="none" stroke="black" d="M285.96,-1079.7C287.72,-1071.98 289.84,-1062.71 291.8,-1054.11"/>
<polygon fill="black" stroke="black" points="295.27,-1054.63 294.09,-1044.1 288.45,-1053.07 295.27,-1054.63"/>
</g>
<!-- DAN.position_attention_module.pa..90 -->
<g id="node37" class="node">
<title>DAN.position_attention_module.pa..90</title>
<polygon fill="none" stroke="black" points="639.5,-900 346.5,-900 346.5,-864 639.5,-864 639.5,-900"/>
<text text-anchor="middle" x="493" y="-878.3" font-family="Times New Roman,serif" font-size="14.00">DAN.position_attention_module.pa.fc_o (Linear)</text>
</g>
<!-- DAN.position_attention_module.pa.out_0 -->
<g id="node39" class="node">
<title>DAN.position_attention_module.pa.out_0</title>
<ellipse fill="none" stroke="black" cx="493" cy="-810" rx="163.27" ry="18"/>
<text text-anchor="middle" x="493" y="-806.3" font-family="Times New Roman,serif" font-size="14.00">DAN.position_attention_module.pa.out_0</text>
</g>
<!-- DAN.position_attention_module.pa..90&#45;&gt;DAN.position_attention_module.pa.out_0 -->
<g id="edge40" class="edge">
<title>DAN.position_attention_module.pa..90&#45;&gt;DAN.position_attention_module.pa.out_0</title>
<path fill="none" stroke="black" d="M493,-863.7C493,-855.98 493,-846.71 493,-838.11"/>
<polygon fill="black" stroke="black" points="496.5,-838.1 493,-828.1 489.5,-838.1 496.5,-838.1"/>
</g>
<!-- DAN.position_attention_module.pa.input.55&#45;&gt;DAN.position_attention_module.pa..90 -->
<g id="edge39" class="edge">
<title>DAN.position_attention_module.pa.input.55&#45;&gt;DAN.position_attention_module.pa..90</title>
<path fill="none" stroke="black" d="M493,-935.7C493,-927.98 493,-918.71 493,-910.11"/>
<polygon fill="black" stroke="black" points="496.5,-910.1 493,-900.1 489.5,-910.1 496.5,-910.1"/>
</g>
<!-- DAN.position_attention_module.out_0 -->
<g id="node40" class="node">
<title>DAN.position_attention_module.out_0</title>
<ellipse fill="none" stroke="black" cx="502" cy="-738" rx="152.17" ry="18"/>
<text text-anchor="middle" x="502" y="-734.3" font-family="Times New Roman,serif" font-size="14.00">DAN.position_attention_module.out_0</text>
</g>
<!-- DAN.position_attention_module.pa.out_0&#45;&gt;DAN.position_attention_module.out_0 -->
<g id="edge41" class="edge">
<title>DAN.position_attention_module.pa.out_0&#45;&gt;DAN.position_attention_module.out_0</title>
<path fill="none" stroke="black" d="M495.22,-791.7C496.22,-783.98 497.41,-774.71 498.51,-766.11"/>
<polygon fill="black" stroke="black" points="502,-766.47 499.8,-756.1 495.05,-765.58 502,-766.47"/>
</g>
<!-- inp_DAN.out_0 -->
<g id="node51" class="node">
<title>inp_DAN.out_0</title>
<path fill="none" stroke="black" d="M694,-684C694,-684 664,-684 664,-684 658,-684 652,-678 652,-672 652,-672 652,-660 652,-660 652,-654 658,-648 664,-648 664,-648 694,-648 694,-648 700,-648 706,-654 706,-660 706,-660 706,-672 706,-672 706,-678 700,-684 694,-684"/>
<text text-anchor="middle" x="679" y="-662.3" font-family="Times New Roman,serif" font-size="14.00">add</text>
</g>
<!-- DAN.position_attention_module.out_0&#45;&gt;inp_DAN.out_0 -->
<g id="edge53" class="edge">
<title>DAN.position_attention_module.out_0&#45;&gt;inp_DAN.out_0</title>
<path fill="none" stroke="black" d="M543.5,-720.59C573.39,-708.77 613.35,-692.96 642.12,-681.58"/>
<polygon fill="black" stroke="black" points="643.79,-684.69 651.8,-677.76 641.21,-678.18 643.79,-684.69"/>
</g>
<!-- DAN.channel_attention_module..23 -->
<g id="node42" class="node">
<title>DAN.channel_attention_module..23</title>
<polygon fill="none" stroke="black" points="1006.5,-1263 729.5,-1263 729.5,-1227 1006.5,-1227 1006.5,-1263"/>
<text text-anchor="middle" x="868" y="-1241.3" font-family="Times New Roman,serif" font-size="14.00">DAN.channel_attention_module.cnn (Conv2d)</text>
</g>
<!-- DAN.channel_attention_module.inp_1&#45;&gt;DAN.channel_attention_module..23 -->
<g id="edge43" class="edge">
<title>DAN.channel_attention_module.inp_1&#45;&gt;DAN.channel_attention_module..23</title>
<path fill="none" stroke="black" d="M860.37,-1301.7C861.53,-1293.25 862.95,-1282.87 864.25,-1273.37"/>
<polygon fill="black" stroke="black" points="867.76,-1273.56 865.65,-1263.18 860.82,-1272.61 867.76,-1273.56"/>
</g>
<!-- DAN.channel_attention_module.pa.inp_queries -->
<g id="node43" class="node">
<title>DAN.channel_attention_module.pa.inp_queries</title>
<ellipse fill="none" stroke="black" cx="879" cy="-1170" rx="182.77" ry="18"/>
<text text-anchor="middle" x="879" y="-1166.3" font-family="Times New Roman,serif" font-size="14.00">DAN.channel_attention_module.pa.inp_queries</text>
</g>
<!-- DAN.channel_attention_module..23&#45;&gt;DAN.channel_attention_module.pa.inp_queries -->
<g id="edge44" class="edge">
<title>DAN.channel_attention_module..23&#45;&gt;DAN.channel_attention_module.pa.inp_queries</title>
<path fill="none" stroke="black" d="M870.61,-1226.7C871.89,-1218.15 873.48,-1207.65 874.92,-1198.07"/>
<polygon fill="black" stroke="black" points="878.38,-1198.59 876.41,-1188.18 871.46,-1197.54 878.38,-1198.59"/>
</g>
<!-- DAN.channel_attention_module.pa.input.57 -->
<g id="node45" class="node">
<title>DAN.channel_attention_module.pa.input.57</title>
<path fill="none" stroke="black" d="M919.5,-1116C919.5,-1116 816.5,-1116 816.5,-1116 810.5,-1116 804.5,-1110 804.5,-1104 804.5,-1104 804.5,-1092 804.5,-1092 804.5,-1086 810.5,-1080 816.5,-1080 816.5,-1080 919.5,-1080 919.5,-1080 925.5,-1080 931.5,-1086 931.5,-1092 931.5,-1092 931.5,-1104 931.5,-1104 931.5,-1110 925.5,-1116 919.5,-1116"/>
<text text-anchor="middle" x="868" y="-1094.3" font-family="Times New Roman,serif" font-size="14.00">div softmax matmul</text>
</g>
<!-- DAN.channel_attention_module.pa.inp_queries&#45;&gt;DAN.channel_attention_module.pa.input.57 -->
<g id="edge45" class="edge">
<title>DAN.channel_attention_module.pa.inp_queries&#45;&gt;DAN.channel_attention_module.pa.input.57</title>
<path fill="none" stroke="black" d="M876.28,-1151.7C875.07,-1143.98 873.61,-1134.71 872.26,-1126.11"/>
<polygon fill="black" stroke="black" points="875.7,-1125.44 870.69,-1116.1 868.78,-1126.53 875.7,-1125.44"/>
</g>
<!-- DAN.channel_attention_module.pa.input.59 -->
<g id="node47" class="node">
<title>DAN.channel_attention_module.pa.input.59</title>
<path fill="none" stroke="black" d="M873.5,-972C873.5,-972 840.5,-972 840.5,-972 834.5,-972 828.5,-966 828.5,-960 828.5,-960 828.5,-948 828.5,-948 828.5,-942 834.5,-936 840.5,-936 840.5,-936 873.5,-936 873.5,-936 879.5,-936 885.5,-942 885.5,-948 885.5,-948 885.5,-960 885.5,-960 885.5,-966 879.5,-972 873.5,-972"/>
<text text-anchor="middle" x="857" y="-950.3" font-family="Times New Roman,serif" font-size="14.00">matmul</text>
</g>
<!-- DAN.channel_attention_module.pa.inp_queries&#45;&gt;DAN.channel_attention_module.pa.input.59 -->
<g id="edge47" class="edge">
<title>DAN.channel_attention_module.pa.inp_queries&#45;&gt;DAN.channel_attention_module.pa.input.59</title>
<path fill="none" stroke="black" d="M915.53,-1152.23C971.76,-1124.1 1068.85,-1064.88 1027,-1008 997.06,-967.31 936.09,-956.97 895.89,-954.82"/>
<polygon fill="black" stroke="black" points="895.77,-951.31 885.65,-954.42 895.5,-958.3 895.77,-951.31"/>
</g>
<!-- DAN.channel_attention_module.pa..80 -->
<g id="node44" class="node">
<title>DAN.channel_attention_module.pa..80</title>
<polygon fill="none" stroke="black" points="1017.5,-1044 696.5,-1044 696.5,-1008 1017.5,-1008 1017.5,-1044"/>
<text text-anchor="middle" x="857" y="-1022.3" font-family="Times New Roman,serif" font-size="14.00">DAN.channel_attention_module.pa.dropout (Dropout)</text>
</g>
<!-- DAN.channel_attention_module.pa..80&#45;&gt;DAN.channel_attention_module.pa.input.59 -->
<g id="edge48" class="edge">
<title>DAN.channel_attention_module.pa..80&#45;&gt;DAN.channel_attention_module.pa.input.59</title>
<path fill="none" stroke="black" d="M857,-1007.7C857,-999.98 857,-990.71 857,-982.11"/>
<polygon fill="black" stroke="black" points="860.5,-982.1 857,-972.1 853.5,-982.1 860.5,-982.1"/>
</g>
<!-- DAN.channel_attention_module.pa.input.57&#45;&gt;DAN.channel_attention_module.pa..80 -->
<g id="edge46" class="edge">
<title>DAN.channel_attention_module.pa.input.57&#45;&gt;DAN.channel_attention_module.pa..80</title>
<path fill="none" stroke="black" d="M865.28,-1079.7C864.07,-1071.98 862.61,-1062.71 861.26,-1054.11"/>
<polygon fill="black" stroke="black" points="864.7,-1053.44 859.69,-1044.1 857.78,-1054.53 864.7,-1053.44"/>
</g>
<!-- DAN.channel_attention_module.pa..81 -->
<g id="node46" class="node">
<title>DAN.channel_attention_module.pa..81</title>
<polygon fill="none" stroke="black" points="1002,-900 712,-900 712,-864 1002,-864 1002,-900"/>
<text text-anchor="middle" x="857" y="-878.3" font-family="Times New Roman,serif" font-size="14.00">DAN.channel_attention_module.pa.fc_o (Linear)</text>
</g>
<!-- DAN.channel_attention_module.pa.out_0 -->
<g id="node48" class="node">
<title>DAN.channel_attention_module.pa.out_0</title>
<ellipse fill="none" stroke="black" cx="857" cy="-810" rx="161.37" ry="18"/>
<text text-anchor="middle" x="857" y="-806.3" font-family="Times New Roman,serif" font-size="14.00">DAN.channel_attention_module.pa.out_0</text>
</g>
<!-- DAN.channel_attention_module.pa..81&#45;&gt;DAN.channel_attention_module.pa.out_0 -->
<g id="edge50" class="edge">
<title>DAN.channel_attention_module.pa..81&#45;&gt;DAN.channel_attention_module.pa.out_0</title>
<path fill="none" stroke="black" d="M857,-863.7C857,-855.98 857,-846.71 857,-838.11"/>
<polygon fill="black" stroke="black" points="860.5,-838.1 857,-828.1 853.5,-838.1 860.5,-838.1"/>
</g>
<!-- DAN.channel_attention_module.pa.input.59&#45;&gt;DAN.channel_attention_module.pa..81 -->
<g id="edge49" class="edge">
<title>DAN.channel_attention_module.pa.input.59&#45;&gt;DAN.channel_attention_module.pa..81</title>
<path fill="none" stroke="black" d="M857,-935.7C857,-927.98 857,-918.71 857,-910.11"/>
<polygon fill="black" stroke="black" points="860.5,-910.1 857,-900.1 853.5,-910.1 860.5,-910.1"/>
</g>
<!-- DAN.channel_attention_module.out_0 -->
<g id="node49" class="node">
<title>DAN.channel_attention_module.out_0</title>
<ellipse fill="none" stroke="black" cx="847" cy="-738" rx="150.27" ry="18"/>
<text text-anchor="middle" x="847" y="-734.3" font-family="Times New Roman,serif" font-size="14.00">DAN.channel_attention_module.out_0</text>
</g>
<!-- DAN.channel_attention_module.pa.out_0&#45;&gt;DAN.channel_attention_module.out_0 -->
<g id="edge51" class="edge">
<title>DAN.channel_attention_module.pa.out_0&#45;&gt;DAN.channel_attention_module.out_0</title>
<path fill="none" stroke="black" d="M854.53,-791.7C853.43,-783.98 852.1,-774.71 850.87,-766.11"/>
<polygon fill="black" stroke="black" points="854.32,-765.51 849.44,-756.1 847.39,-766.5 854.32,-765.51"/>
</g>
<!-- DAN.channel_attention_module.out_0&#45;&gt;inp_DAN.out_0 -->
<g id="edge52" class="edge">
<title>DAN.channel_attention_module.out_0&#45;&gt;inp_DAN.out_0</title>
<path fill="none" stroke="black" d="M807.61,-720.59C779.8,-709 742.79,-693.58 715.62,-682.26"/>
<polygon fill="black" stroke="black" points="716.66,-678.9 706.09,-678.29 713.97,-685.36 716.66,-678.9"/>
</g>
<!-- DAN.out_0 -->
<g id="node50" class="node">
<title>DAN.out_0</title>
<ellipse fill="none" stroke="black" cx="679" cy="-594" rx="53.09" ry="18"/>
<text text-anchor="middle" x="679" y="-590.3" font-family="Times New Roman,serif" font-size="14.00">DAN.out_0</text>
</g>
<!-- .1341 -->
<g id="node52" class="node">
<title>.1341</title>
<polygon fill="none" stroke="black" points="720.5,-540 637.5,-540 637.5,-504 720.5,-504 720.5,-540"/>
<text text-anchor="middle" x="679" y="-518.3" font-family="Times New Roman,serif" font-size="14.00">relu (ReLU)</text>
</g>
<!-- DAN.out_0&#45;&gt;.1341 -->
<g id="edge55" class="edge">
<title>DAN.out_0&#45;&gt;.1341</title>
<path fill="none" stroke="black" d="M679,-575.7C679,-567.98 679,-558.71 679,-550.11"/>
<polygon fill="black" stroke="black" points="682.5,-550.1 679,-540.1 675.5,-550.1 682.5,-550.1"/>
</g>
<!-- inp_DAN.out_0&#45;&gt;DAN.out_0 -->
<g id="edge54" class="edge">
<title>inp_DAN.out_0&#45;&gt;DAN.out_0</title>
<path fill="none" stroke="black" d="M679,-647.7C679,-639.98 679,-630.71 679,-622.11"/>
<polygon fill="black" stroke="black" points="682.5,-622.1 679,-612.1 675.5,-622.1 682.5,-622.1"/>
</g>
<!-- .1342 -->
<g id="node53" class="node">
<title>.1342</title>
<polygon fill="none" stroke="black" points="670,-468 554,-468 554,-432 670,-432 670,-468"/>
<text text-anchor="middle" x="612" y="-446.3" font-family="Times New Roman,serif" font-size="14.00">convPa (Conv2d)</text>
</g>
<!-- .1341&#45;&gt;.1342 -->
<g id="edge56" class="edge">
<title>.1341&#45;&gt;.1342</title>
<path fill="none" stroke="black" d="M662.44,-503.7C654.32,-495.22 644.41,-484.86 635.53,-475.58"/>
<polygon fill="black" stroke="black" points="637.81,-472.91 628.37,-468.1 632.76,-477.75 637.81,-472.91"/>
</g>
<!-- .1347 -->
<g id="node58" class="node">
<title>.1347</title>
<polygon fill="none" stroke="black" points="811,-468 693,-468 693,-432 811,-432 811,-468"/>
<text text-anchor="middle" x="752" y="-446.3" font-family="Times New Roman,serif" font-size="14.00">convDa (Conv2d)</text>
</g>
<!-- .1341&#45;&gt;.1347 -->
<g id="edge61" class="edge">
<title>.1341&#45;&gt;.1347</title>
<path fill="none" stroke="black" d="M697.04,-503.7C706.06,-495.05 717.12,-484.45 726.94,-475.03"/>
<polygon fill="black" stroke="black" points="729.37,-477.55 734.16,-468.1 724.52,-472.5 729.37,-477.55"/>
</g>
<!-- .1343 -->
<g id="node54" class="node">
<title>.1343</title>
<polygon fill="none" stroke="black" points="670.5,-396 533.5,-396 533.5,-360 670.5,-360 670.5,-396"/>
<text text-anchor="middle" x="602" y="-374.3" font-family="Times New Roman,serif" font-size="14.00">bnPa (BatchNorm2d)</text>
</g>
<!-- .1342&#45;&gt;.1343 -->
<g id="edge57" class="edge">
<title>.1342&#45;&gt;.1343</title>
<path fill="none" stroke="black" d="M609.53,-431.7C608.43,-423.98 607.1,-414.71 605.87,-406.11"/>
<polygon fill="black" stroke="black" points="609.32,-405.51 604.44,-396.1 602.39,-406.5 609.32,-405.51"/>
</g>
<!-- .1344 -->
<g id="node55" class="node">
<title>.1344</title>
<polygon fill="none" stroke="black" points="643.5,-324 560.5,-324 560.5,-288 643.5,-288 643.5,-324"/>
<text text-anchor="middle" x="602" y="-302.3" font-family="Times New Roman,serif" font-size="14.00">relu (ReLU)</text>
</g>
<!-- .1343&#45;&gt;.1344 -->
<g id="edge58" class="edge">
<title>.1343&#45;&gt;.1344</title>
<path fill="none" stroke="black" d="M602,-359.7C602,-351.98 602,-342.71 602,-334.11"/>
<polygon fill="black" stroke="black" points="605.5,-334.1 602,-324.1 598.5,-334.1 605.5,-334.1"/>
</g>
<!-- .1345 -->
<g id="node56" class="node">
<title>.1345</title>
<polygon fill="none" stroke="black" points="661,-252 543,-252 543,-216 661,-216 661,-252"/>
<text text-anchor="middle" x="602" y="-230.3" font-family="Times New Roman,serif" font-size="14.00">convPb (Conv2d)</text>
</g>
<!-- .1344&#45;&gt;.1345 -->
<g id="edge59" class="edge">
<title>.1344&#45;&gt;.1345</title>
<path fill="none" stroke="black" d="M602,-287.7C602,-279.98 602,-270.71 602,-262.11"/>
<polygon fill="black" stroke="black" points="605.5,-262.1 602,-252.1 598.5,-262.1 605.5,-262.1"/>
</g>
<!-- .1346 -->
<g id="node57" class="node">
<title>.1346</title>
<polygon fill="none" stroke="black" points="671,-180 533,-180 533,-144 671,-144 671,-180"/>
<text text-anchor="middle" x="602" y="-158.3" font-family="Times New Roman,serif" font-size="14.00">bnPb (BatchNorm2d)</text>
</g>
<!-- .1345&#45;&gt;.1346 -->
<g id="edge60" class="edge">
<title>.1345&#45;&gt;.1346</title>
<path fill="none" stroke="black" d="M602,-215.7C602,-207.98 602,-198.71 602,-190.11"/>
<polygon fill="black" stroke="black" points="605.5,-190.1 602,-180.1 598.5,-190.1 605.5,-190.1"/>
</g>
<!-- inp_out_0 -->
<g id="node64" class="node">
<title>inp_out_0</title>
<path fill="none" stroke="black" d="M701.5,-108C701.5,-108 658.5,-108 658.5,-108 652.5,-108 646.5,-102 646.5,-96 646.5,-96 646.5,-84 646.5,-84 646.5,-78 652.5,-72 658.5,-72 658.5,-72 701.5,-72 701.5,-72 707.5,-72 713.5,-78 713.5,-84 713.5,-84 713.5,-96 713.5,-96 713.5,-102 707.5,-108 701.5,-108"/>
<text text-anchor="middle" x="680" y="-86.3" font-family="Times New Roman,serif" font-size="14.00">div norm</text>
</g>
<!-- .1346&#45;&gt;inp_out_0 -->
<g id="edge67" class="edge">
<title>.1346&#45;&gt;inp_out_0</title>
<path fill="none" stroke="black" d="M621.28,-143.7C630.92,-135.05 642.73,-124.45 653.23,-115.03"/>
<polygon fill="black" stroke="black" points="655.84,-117.39 660.94,-108.1 651.16,-112.18 655.84,-117.39"/>
</g>
<!-- .1348 -->
<g id="node59" class="node">
<title>.1348</title>
<polygon fill="none" stroke="black" points="827,-396 689,-396 689,-360 827,-360 827,-396"/>
<text text-anchor="middle" x="758" y="-374.3" font-family="Times New Roman,serif" font-size="14.00">bnDa (BatchNorm2d)</text>
</g>
<!-- .1347&#45;&gt;.1348 -->
<g id="edge62" class="edge">
<title>.1347&#45;&gt;.1348</title>
<path fill="none" stroke="black" d="M753.48,-431.7C754.14,-423.98 754.94,-414.71 755.68,-406.11"/>
<polygon fill="black" stroke="black" points="759.17,-406.37 756.53,-396.1 752.19,-405.77 759.17,-406.37"/>
</g>
<!-- .1349 -->
<g id="node60" class="node">
<title>.1349</title>
<polygon fill="none" stroke="black" points="799.5,-324 716.5,-324 716.5,-288 799.5,-288 799.5,-324"/>
<text text-anchor="middle" x="758" y="-302.3" font-family="Times New Roman,serif" font-size="14.00">relu (ReLU)</text>
</g>
<!-- .1348&#45;&gt;.1349 -->
<g id="edge63" class="edge">
<title>.1348&#45;&gt;.1349</title>
<path fill="none" stroke="black" d="M758,-359.7C758,-351.98 758,-342.71 758,-334.11"/>
<polygon fill="black" stroke="black" points="761.5,-334.1 758,-324.1 754.5,-334.1 761.5,-334.1"/>
</g>
<!-- .1350 -->
<g id="node61" class="node">
<title>.1350</title>
<polygon fill="none" stroke="black" points="817.5,-252 698.5,-252 698.5,-216 817.5,-216 817.5,-252"/>
<text text-anchor="middle" x="758" y="-230.3" font-family="Times New Roman,serif" font-size="14.00">convDb (Conv2d)</text>
</g>
<!-- .1349&#45;&gt;.1350 -->
<g id="edge64" class="edge">
<title>.1349&#45;&gt;.1350</title>
<path fill="none" stroke="black" d="M758,-287.7C758,-279.98 758,-270.71 758,-262.11"/>
<polygon fill="black" stroke="black" points="761.5,-262.1 758,-252.1 754.5,-262.1 761.5,-262.1"/>
</g>
<!-- .1351 -->
<g id="node62" class="node">
<title>.1351</title>
<polygon fill="none" stroke="black" points="829,-180 689,-180 689,-144 829,-144 829,-180"/>
<text text-anchor="middle" x="759" y="-158.3" font-family="Times New Roman,serif" font-size="14.00">bnDb (BatchNorm2d)</text>
</g>
<!-- .1350&#45;&gt;.1351 -->
<g id="edge65" class="edge">
<title>.1350&#45;&gt;.1351</title>
<path fill="none" stroke="black" d="M758.25,-215.7C758.36,-207.98 758.49,-198.71 758.61,-190.11"/>
<polygon fill="black" stroke="black" points="762.11,-190.15 758.76,-180.1 755.11,-190.05 762.11,-190.15"/>
</g>
<!-- .1351&#45;&gt;inp_out_0 -->
<g id="edge66" class="edge">
<title>.1351&#45;&gt;inp_out_0</title>
<path fill="none" stroke="black" d="M739.47,-143.7C729.62,-134.97 717.51,-124.24 706.8,-114.75"/>
<polygon fill="black" stroke="black" points="709.11,-112.12 699.3,-108.1 704.47,-117.36 709.11,-112.12"/>
</g>
<!-- out_0 -->
<g id="node63" class="node">
<title>out_0</title>
<ellipse fill="none" stroke="black" cx="680" cy="-18" rx="31.7" ry="18"/>
<text text-anchor="middle" x="680" y="-14.3" font-family="Times New Roman,serif" font-size="14.00">out_0</text>
</g>
<!-- inp_out_0&#45;&gt;out_0 -->
<g id="edge68" class="edge">
<title>inp_out_0&#45;&gt;out_0</title>
<path fill="none" stroke="black" d="M680,-71.7C680,-63.98 680,-54.71 680,-46.11"/>
<polygon fill="black" stroke="black" points="683.5,-46.1 680,-36.1 676.5,-46.1 683.5,-46.1"/>
</g>
</g>
</svg>
